<svg id="Group_141" data-name="Group 141" xmlns="http://www.w3.org/2000/svg" width="28.298" height="28.299" viewBox="0 0 28.298 28.299">
  <path id="Path_48" data-name="Path 48" d="M105.437,210.729h0a14.149,14.149,0,0,1-14.15-14.149h0a14.149,14.149,0,0,1,14.15-14.15h0a14.149,14.149,0,0,1,14.149,14.15h0A14.149,14.149,0,0,1,105.437,210.729Z" transform="translate(-91.287 -182.43)" fill="#4b8ab9"/>
  <g id="Group_34" data-name="Group 34" transform="translate(7.452 6.266)">
    <g id="Group_33" data-name="Group 33">
      <rect id="Rectangle_10" data-name="Rectangle 10" width="2.928" height="9.46" transform="translate(0.281 4.73)" fill="#fff"/>
      <path id="Path_49" data-name="Path 49" d="M103.042,194.348a1.745,1.745,0,1,0-1.732-1.746A1.739,1.739,0,0,0,103.042,194.348Z" transform="translate(-101.31 -190.857)" fill="#fff"/>
    </g>
    <path id="Path_50" data-name="Path 50" d="M110.954,201.613c0-1.329.612-2.122,1.784-2.122,1.077,0,1.594.761,1.594,2.122v4.966h2.915v-5.99c0-2.534-1.436-3.759-3.442-3.759a3.3,3.3,0,0,0-2.851,1.563v-1.274h-2.809v9.46h2.809Z" transform="translate(-103.063 -192.389)" fill="#fff"/>
  </g>
</svg>
