<svg id="Group_38" data-name="Group 38" xmlns="http://www.w3.org/2000/svg" width="28.298" height="28.299" viewBox="0 0 28.298 28.299">
  <path id="Path_52" data-name="Path 52" d="M216.275,156.8h0a14.149,14.149,0,0,1-14.149-14.149h0a14.149,14.149,0,0,1,14.149-14.15h0a14.149,14.149,0,0,1,14.15,14.15h0A14.149,14.149,0,0,1,216.275,156.8Z" transform="translate(-202.126 -128.505)" fill="#ae29b3"/>
  <g id="Group_37" data-name="Group 37" transform="translate(6.391 6.391)">
    <path id="Path_53" data-name="Path 53" d="M218.48,138.5c2.071,0,2.317.008,3.135.045a4.3,4.3,0,0,1,1.44.268,2.564,2.564,0,0,1,1.472,1.472,4.3,4.3,0,0,1,.268,1.44c.037.819.045,1.064.045,3.135s-.008,2.317-.045,3.135a4.3,4.3,0,0,1-.268,1.441,2.564,2.564,0,0,1-1.472,1.472,4.284,4.284,0,0,1-1.44.267c-.819.037-1.063.045-3.135.045s-2.317-.008-3.135-.045a4.289,4.289,0,0,1-1.441-.267,2.57,2.57,0,0,1-1.472-1.472,4.285,4.285,0,0,1-.267-1.441c-.037-.818-.045-1.063-.045-3.135s.008-2.317.045-3.135a4.284,4.284,0,0,1,.267-1.44,2.57,2.57,0,0,1,1.472-1.472,4.3,4.3,0,0,1,1.441-.268c.818-.037,1.063-.045,3.135-.045m0-1.4c-2.107,0-2.371.01-3.2.047a5.7,5.7,0,0,0-1.883.361,3.967,3.967,0,0,0-2.268,2.269,5.682,5.682,0,0,0-.361,1.883c-.038.828-.047,1.091-.047,3.2s.009,2.371.047,3.2a5.682,5.682,0,0,0,.361,1.883,3.967,3.967,0,0,0,2.268,2.269,5.723,5.723,0,0,0,1.883.361c.828.037,1.091.046,3.2.046s2.371-.009,3.2-.046a5.719,5.719,0,0,0,1.883-.361,3.971,3.971,0,0,0,2.269-2.269,5.7,5.7,0,0,0,.361-1.883c.038-.828.047-1.091.047-3.2s-.009-2.371-.047-3.2a5.7,5.7,0,0,0-.361-1.883,3.971,3.971,0,0,0-2.269-2.269,5.7,5.7,0,0,0-1.883-.361c-.828-.037-1.091-.047-3.2-.047" transform="translate(-210.722 -137.101)" fill="#fff"/>
    <path id="Path_54" data-name="Path 54" d="M219.782,142.178a3.984,3.984,0,1,0,3.984,3.984,3.984,3.984,0,0,0-3.984-3.984m0,6.57a2.586,2.586,0,1,1,2.586-2.586,2.586,2.586,0,0,1-2.586,2.586" transform="translate(-212.024 -138.403)" fill="#fff"/>
    <path id="Path_55" data-name="Path 55" d="M227.336,141.645a.931.931,0,1,1-.931-.931.931.931,0,0,1,.931.931" transform="translate(-214.506 -138.028)" fill="#fff"/>
  </g>
</svg>
