<svg id="Group_142" data-name="Group 142" xmlns="http://www.w3.org/2000/svg" width="28.298" height="28.298" viewBox="0 0 28.298 28.298">
  <path id="Rectangle_11" data-name="Rectangle 11" d="M14.149,0h0A14.149,14.149,0,0,1,28.3,14.149v0A14.149,14.149,0,0,1,14.149,28.3h0A14.149,14.149,0,0,1,0,14.149v0A14.149,14.149,0,0,1,14.149,0Z" transform="translate(0 0)" fill="#3c5f9c"/>
  <path id="Path_51" data-name="Path 51" d="M161.9,153.138h3.444v-8.625h2.4l.256-2.888h-2.66V139.98c0-.681.137-.95.8-.95h1.864v-3h-2.385c-2.563,0-3.718,1.129-3.718,3.289v2.3h-1.792v2.924H161.9Z" transform="translate(-149.911 -130.436)" fill="#fff"/>
</svg>
