<svg xmlns="http://www.w3.org/2000/svg" width="173.471" height="208.229" viewBox="0 0 173.471 208.229">
  <g id="Group_254" data-name="Group 254" transform="translate(-479.28 -134.664)">
    <path id="Path_385" data-name="Path 385" d="M606.283,418.345c0,2.191-16.107,3.966-35.976,3.966s-35.977-1.776-35.977-3.966,16.107-3.966,35.977-3.966S606.283,416.155,606.283,418.345Z" transform="translate(-18.383 -79.419)" fill="#e8e8e8"/>
    <g id="Group_253" data-name="Group 253" transform="translate(479.28 134.664)">
      <path id="Path_386" data-name="Path 386" d="M639.933,269.626c-8.486,31-25.468,54.854-50.6,71.081-.335-.216-.662-.44-.994-.659v20.065c.254.141.5.287.752.427h.482c52.128-28.507,67.823-77.668,72.023-112.581Z" transform="translate(-515.7 -172.497)" fill="#005fab"/>
      <path id="Path_387" data-name="Path 387" d="M589.433,154.718a442.518,442.518,0,0,0,54.263,26.3l13.265-13.264a409.52,409.52,0,0,1-67.6-33.086h-.051s-.334.219-.97.623v20.065Q588.9,155.029,589.433,154.718Z" transform="translate(-515.7 -134.664)" fill="#005fab"/>
      <path id="Path_388" data-name="Path 388" d="M500.533,224.865a173.17,173.17,0,0,1-4.011-42.629,404.454,404.454,0,0,0,55.4-26.572V135.6a376.93,376.93,0,0,1-71.715,34.355s-14.57,104.782,71.715,152.638V302.527C525.434,285.054,508.163,258.981,500.533,224.865Z" transform="translate(-479.28 -134.976)" fill="#1976d2"/>
      <path id="Path_389" data-name="Path 389" d="M667.014,178.732l-5.576-5.576a6.433,6.433,0,0,0-9.1,0l-73.487,73.487a4.909,4.909,0,0,1-6.549.352l-29.26-23.559a6.433,6.433,0,0,0-9.044.976l-4.945,6.142a6.433,6.433,0,0,0,.976,9.045l43.773,35.243a4.908,4.908,0,0,0,6.548-.352l86.661-86.661A6.433,6.433,0,0,0,667.014,178.732Z" transform="translate(-495.427 -146.889)" fill="#83c71b"/>
    </g>
  </g>
</svg>
