<svg xmlns="http://www.w3.org/2000/svg" xmlns:xlink="http://www.w3.org/1999/xlink" width="59.084" height="64.488" viewBox="0 0 59.084 64.488">
  <defs>
    <clipPath id="clip-path">
      <rect id="Rectangle_23" data-name="Rectangle 23" width="59.084" height="64.488" fill="#1976d2"/>
    </clipPath>
  </defs>
  <g id="Group_71" data-name="Group 71" transform="translate(-70 -127.961)">
    <g id="Group_70" data-name="Group 70" transform="translate(70 127.961)">
      <g id="Group_69" data-name="Group 69" transform="translate(0)" clip-path="url(#clip-path)">
        <path id="Path_82" data-name="Path 82" d="M129.057,143.971a1.682,1.682,0,0,0-.163-.718,1.569,1.569,0,0,0-1.1-.867L100.205,129a1.635,1.635,0,0,0-1.422,0l-27.862,13.5A1.631,1.631,0,0,0,70,143.917v33.958a1.612,1.612,0,0,0,.921,1.462l27.862,13.5c.013,0,.013,0,.027.013a.492.492,0,0,1,.122.054c.014,0,.027.014.054.014l.122.04c.013,0,.026.014.04.014.04.013.095.013.136.027h.04c.054,0,.122.013.176.013a.8.8,0,0,0,.177-.013h.04a.493.493,0,0,0,.135-.027c.013,0,.027-.014.04-.014l.122-.04c.013,0,.027-.014.054-.014a.478.478,0,0,0,.122-.054c.013,0,.013,0,.027-.013L128.163,179.3a1.639,1.639,0,0,0,.921-1.463V144.012c-.027-.014-.027-.027-.027-.041Zm-29.569-11.7,24.164,11.717-8.9,4.321L90.589,136.589Zm0,23.434L75.323,143.985l11.541-5.595,24.164,11.717Zm-26.237-9.1,24.611,11.933v30.246L73.251,176.845Zm27.863,42.18V158.532l11.554-5.608v7.911a1.625,1.625,0,0,0,3.251,0v-9.5l9.888-4.795v30.246Zm0,0" transform="translate(-70 -128.692)" fill="#1976d2"/>
      </g>
    </g>
  </g>
</svg>
