<svg xmlns="http://www.w3.org/2000/svg" width="70" height="59.201" viewBox="0 0 70 59.201">
  <g id="Group_74" data-name="Group 74" transform="translate(-59 -159.961)">
    <path id="Path_83" data-name="Path 83" d="M105,266.394a1.129,1.129,0,0,0,0,2.258,7.314,7.314,0,0,1,0,14.629,1.129,1.129,0,1,0,0,2.258,9.585,9.585,0,0,0,9.5-8.443h9.15a1.129,1.129,0,0,0,0-2.258H114.5a9.585,9.585,0,0,0-9.5-8.443Zm0,0" transform="translate(-36.428 -86.405)" fill="#1976d2"/>
    <path id="Path_84" data-name="Path 84" d="M80.157,159.961a12.731,12.731,0,0,0-12.669,11.646,9.572,9.572,0,0,0-3.422,17.954,9.571,9.571,0,0,0,3.422,17.954,12.714,12.714,0,0,0,25.383-1.068V172.675a12.728,12.728,0,0,0-12.714-12.714Zm10.456,23.108a10.47,10.47,0,0,1-9.327-10.393,1.129,1.129,0,0,0-2.258,0,12.729,12.729,0,0,0,11.585,12.66v8.452a12.729,12.729,0,0,0-11.585,12.661,1.129,1.129,0,1,0,2.258,0,10.47,10.47,0,0,1,9.327-10.394v10.394a10.456,10.456,0,1,1-20.911,0,1.129,1.129,0,0,0-1.129-1.129,7.314,7.314,0,1,1,0-14.628,1.129,1.129,0,1,0,0-2.258,7.314,7.314,0,1,1,0-14.628,1.129,1.129,0,0,0,1.129-1.129,10.456,10.456,0,1,1,20.911,0Zm0,0" transform="translate(0 0)" fill="#1976d2"/>
    <path id="Path_85" data-name="Path 85" d="M294.782,283.281a7.314,7.314,0,0,1,0-14.629,1.129,1.129,0,0,0,0-2.258,9.585,9.585,0,0,0-9.5,8.443h-9.15a1.129,1.129,0,0,0,0,2.258h9.15a9.585,9.585,0,0,0,9.5,8.443,1.129,1.129,0,0,0,0-2.258Zm0,0" transform="translate(-175.355 -86.405)" fill="#1976d2"/>
    <path id="Path_86" data-name="Path 86" d="M279.806,189.561a9.571,9.571,0,0,0-3.422-17.954A12.714,12.714,0,0,0,251,172.675v33.773a12.714,12.714,0,0,0,25.383,1.069,9.572,9.572,0,0,0,3.422-17.955ZM275.3,205.319a1.129,1.129,0,0,0-1.129,1.129,10.456,10.456,0,1,1-20.911,0V196.054a10.47,10.47,0,0,1,9.327,10.394,1.129,1.129,0,1,0,2.258,0,12.729,12.729,0,0,0-11.585-12.661v-8.452a12.729,12.729,0,0,0,11.585-12.66,1.129,1.129,0,0,0-2.258,0,10.469,10.469,0,0,1-9.327,10.393V172.675a10.456,10.456,0,1,1,20.911,0A1.129,1.129,0,0,0,275.3,173.8a7.314,7.314,0,1,1,0,14.628,1.129,1.129,0,1,0,0,2.258,7.314,7.314,0,1,1,0,14.628Zm0,0" transform="translate(-155.871 0)" fill="#1976d2"/>
  </g>
</svg>
