<svg xmlns="http://www.w3.org/2000/svg" width="47.301" height="43.086" viewBox="0 0 47.301 43.086">
  <g id="Group_64" data-name="Group 64" transform="translate(-1130 -434.858)">
    <path id="Path_72" data-name="Path 72" d="M1166.19,445.015a3.923,3.923,0,0,1-1.805,2.944c-.288.242-.825.684-.824.849a1.155,1.155,0,0,1-1.163,1.165h-.01a1.158,1.158,0,0,1-1.172-1.146,3.508,3.508,0,0,1,1.661-2.656c.584-.491.968-.836.968-1.152a1.16,1.16,0,0,0-2.321,0,1.173,1.173,0,0,1-2.345,0,3.506,3.506,0,0,1,7.011,0Zm-3.77,6.041a1.15,1.15,0,0,0-1.146,1.173v.009a1.147,1.147,0,0,0,1.146,1.169,1.175,1.175,0,0,0,0-2.35Zm-23.638,8.169a1.173,1.173,0,0,0,0,2.345h.1a1.173,1.173,0,1,0,0-2.345Zm4.076,0a1.173,1.173,0,1,0,0,2.345h.1a1.173,1.173,0,0,0,0-2.345Zm34.443-18.731v13.2a5.637,5.637,0,0,1-5.631,5.661h-15.209c-.3,0-.542,0-.747-.006s-.456-.006-.55,0c-.1.065-.339.285-.571.5-.091.085-.2.177-.308.28l-4.3,3.922a1.2,1.2,0,0,1-2-.866V450.756H1135.7a3.361,3.361,0,0,0-3.352,3.333v13.2a3.309,3.309,0,0,0,3.352,3.273h16.988a1.179,1.179,0,0,1,.783.331l3.506,3.232V462.98a1.173,1.173,0,1,1,2.345,0v13.8a1.156,1.156,0,0,1-.691,1.066,1.12,1.12,0,0,1-.465.094,1.185,1.185,0,0,1-.791-.319l-5.142-4.718H1135.7a5.657,5.657,0,0,1-5.7-5.618v-13.2a5.709,5.709,0,0,1,5.7-5.679h12.285v-7.916a5.689,5.689,0,0,1,5.717-5.636h17.971a5.615,5.615,0,0,1,5.631,5.636Zm-2.345,0a3.268,3.268,0,0,0-3.286-3.291H1153.7a3.34,3.34,0,0,0-3.371,3.291v20.036l2.358-2.131c.109-.1.232-.191.321-.273a2.958,2.958,0,0,1,2.756-1.122c.192,0,.42.005.7.005h15.209a3.29,3.29,0,0,0,3.286-3.316Zm0,0" transform="translate(0 0)" fill="#dedede"/>
  </g>
</svg>
