<svg xmlns="http://www.w3.org/2000/svg" width="54.538" height="48.118" viewBox="0 0 54.538 48.118">
  <g id="Group_65" data-name="Group 65" transform="translate(-1063 -379.858)">
    <path id="Path_73" data-name="Path 73" d="M1184.726,572.57a.9.9,0,0,1-.583-.215l-5.826-4.961a.9.9,0,0,1,0-1.371l5.826-4.961a.9.9,0,1,1,1.167,1.371l-5.021,4.276,5.021,4.276a.9.9,0,0,1-.584,1.586Zm0,0" transform="translate(-100.208 -157.709)" fill="#dedede"/>
    <path id="Path_74" data-name="Path 74" d="M1313.609,572.57a.9.9,0,0,1-.584-1.586l5.021-4.276-5.021-4.276a.9.9,0,0,1,1.167-1.371l5.826,4.961a.9.9,0,0,1,0,1.371l-5.826,4.961a.9.9,0,0,1-.583.215Zm0,0" transform="translate(-217.589 -157.709)" fill="#dedede"/>
    <path id="Path_75" data-name="Path 75" d="M1252.856,551.924a.911.911,0,0,1-.187-.02.9.9,0,0,1-.7-1.067L1255.6,533.6a.9.9,0,1,1,1.762.371l-3.631,17.241a.9.9,0,0,1-.88.715Zm0,0" transform="translate(-164.649 -133.341)" fill="#dedede"/>
    <path id="Path_76" data-name="Path 76" d="M1111.493,427.976h-42.447A6.052,6.052,0,0,1,1063,421.93V385.9a6.053,6.053,0,0,1,6.046-6.045h42.447a6.053,6.053,0,0,1,6.046,6.045V421.93a6.052,6.052,0,0,1-6.046,6.046Zm-42.447-46.317a4.25,4.25,0,0,0-4.245,4.245V421.93a4.25,4.25,0,0,0,4.245,4.245h42.447a4.25,4.25,0,0,0,4.245-4.245V385.9a4.25,4.25,0,0,0-4.245-4.245Zm0,0" transform="translate(0 0)" fill="#dedede"/>
    <path id="Path_77" data-name="Path 77" d="M1116.638,479.749H1063.9a.9.9,0,1,1,0-1.8h52.737a.9.9,0,0,1,0,1.8Zm0,0" transform="translate(0 -85.473)" fill="#dedede"/>
    <path id="Path_78" data-name="Path 78" d="M1163.3,419.846a2.849,2.849,0,1,1,2.849-2.849,2.853,2.853,0,0,1-2.849,2.849Zm0-3.9a1.049,1.049,0,1,0,1.049,1.049,1.05,1.05,0,0,0-1.049-1.049Zm0,0" transform="translate(-84.914 -29.878)" fill="#dedede"/>
    <path id="Path_79" data-name="Path 79" d="M1095.236,419.631a2.849,2.849,0,1,1,2.849-2.849,2.853,2.853,0,0,1-2.849,2.849Zm0-3.9a1.049,1.049,0,1,0,1.048,1.049,1.05,1.05,0,0,0-1.048-1.049Zm0,0" transform="translate(-25.607 -29.691)" fill="#dedede"/>
    <path id="Path_80" data-name="Path 80" d="M1231.365,420.06a2.849,2.849,0,1,1,2.849-2.849,2.853,2.853,0,0,1-2.849,2.849Zm0-3.9a1.049,1.049,0,1,0,1.049,1.049,1.049,1.049,0,0,0-1.049-1.049Zm0,0" transform="translate(-144.226 -30.066)" fill="#dedede"/>
  </g>
</svg>
