<svg xmlns="http://www.w3.org/2000/svg" width="46.121" height="49.83" viewBox="0 0 46.121 49.83">
  <g id="Group_49" data-name="Group 49" transform="translate(-1191 -475.858)">
    <path id="Path_62" data-name="Path 62" d="M1227.721,506.885a9.384,9.384,0,0,0-7.233,3.4l-11.228-6.374a9.383,9.383,0,0,0,0-6.28l11.227-6.377a9.388,9.388,0,1,0-1.626-2.859l-11.227,6.377a9.4,9.4,0,1,0,0,12l11.228,6.374a9.4,9.4,0,1,0,8.86-6.262Zm0-27.737a6.112,6.112,0,1,1-6.111,6.111,6.118,6.118,0,0,1,6.111-6.111ZM1200.4,506.885a6.111,6.111,0,1,1,6.11-6.11,6.119,6.119,0,0,1-6.11,6.11Zm27.318,15.514a6.112,6.112,0,1,1,6.11-6.111,6.118,6.118,0,0,1-6.11,6.111Zm0,0" fill="#dedede"/>
  </g>
</svg>
