<svg xmlns="http://www.w3.org/2000/svg" width="47.21" height="50.194" viewBox="0 0 47.21 50.194">
  <g id="Group_62" data-name="Group 62" transform="translate(-1096 -376.858)">
    <path id="Path_68" data-name="Path 68" d="M1136.777,395.945v-1.93a17.63,17.63,0,0,0-4.6-12.1,15.859,15.859,0,0,0-11.768-5.061h-1.592a15.859,15.859,0,0,0-11.768,5.061,17.629,17.629,0,0,0-4.6,12.1v1.93a6.925,6.925,0,0,0-6.454,6.9v3.016a6.917,6.917,0,0,0,6.907,6.907h3.891a1.269,1.269,0,0,0,1.265-1.265v-14.31a1.269,1.269,0,0,0-1.265-1.265h-1.814v-1.909c0-8.341,5.948-14.626,13.824-14.626h1.593c7.888,0,13.824,6.285,13.824,14.626v1.909h-1.814a1.269,1.269,0,0,0-1.265,1.265v14.3a1.269,1.269,0,0,0,1.265,1.266h1.772c-.516,6.6-5.061,8.13-7.17,8.478a4.45,4.45,0,0,0-4.229-3.069h-3.163a4.445,4.445,0,0,0,0,8.89h3.174a4.451,4.451,0,0,0,4.281-3.269,11.974,11.974,0,0,0,4.292-1.466c2.288-1.339,5-4.07,5.357-9.575a6.915,6.915,0,0,0,6.485-6.9V402.83a6.889,6.889,0,0,0-6.433-6.886Zm-31.223,14.278h-2.626a4.379,4.379,0,0,1-4.376-4.376V402.83a4.379,4.379,0,0,1,4.376-4.376h2.626Zm17.241,14.3h-3.174a1.909,1.909,0,1,1,0-3.817h3.174a1.909,1.909,0,1,1,0,3.817Zm17.895-18.675a4.379,4.379,0,0,1-4.376,4.376h-2.625V398.454h2.625a4.379,4.379,0,0,1,4.376,4.376Zm0,0" fill="#dedede"/>
  </g>
</svg>
