<svg xmlns="http://www.w3.org/2000/svg" width="51.886" height="56.059" viewBox="0 0 51.886 56.059">
  <g id="Group_91" data-name="Group 91" transform="translate(-1191 -475.858)">
    <path id="Path_62" data-name="Path 62" d="M1232.311,510.763a10.558,10.558,0,0,0-8.137,3.828l-12.631-7.17a10.554,10.554,0,0,0,0-7.065l12.63-7.174a10.561,10.561,0,1,0-1.83-3.217l-12.63,7.174a10.576,10.576,0,1,0,0,13.5l12.631,7.171a10.574,10.574,0,1,0,9.968-7.045Zm0-31.2a6.876,6.876,0,1,1-6.875,6.875,6.882,6.882,0,0,1,6.875-6.875Zm-30.733,31.2a6.875,6.875,0,1,1,6.874-6.874,6.884,6.884,0,0,1-6.874,6.874Zm30.733,17.453a6.876,6.876,0,1,1,6.874-6.875,6.883,6.883,0,0,1-6.874,6.875Zm0,0" transform="translate(0 0)" fill="#1976d2"/>
  </g>
</svg>
