<svg xmlns="http://www.w3.org/2000/svg" width="53.453" height="57.91" viewBox="0 0 53.453 57.91">
  <g id="Group_95" data-name="Group 95" transform="translate(0 0)">
    <path id="Path_114" data-name="Path 114" d="M245.749,296.326a10.053,10.053,0,0,0,1.7-5.671,9.029,9.029,0,0,0-8.908-8.877H232.42a15.267,15.267,0,0,0,1.671-6.68,14.447,14.447,0,0,0-1.218-6.474,7.652,7.652,0,0,0-3.55-3.534,11.906,11.906,0,0,0-5.256-1.13,4.417,4.417,0,0,0-3.13,1.287,8.388,8.388,0,0,0-2.159,3.76q-.66,2.3-1.061,4.4a5.893,5.893,0,0,1-1.235,2.976q-1.7,1.845-3.723,4.455-3.517,4.559-4.768,5.394h-9.535A4.457,4.457,0,0,0,194,290.689v22.273a4.457,4.457,0,0,0,4.455,4.455h10.021a25.874,25.874,0,0,1,4.8,1.391q4.28,1.5,7.534,2.279a27.994,27.994,0,0,0,6.595.784h4.49a11.088,11.088,0,0,0,7.9-2.8,9.846,9.846,0,0,0,2.96-7.638,9.8,9.8,0,0,0,2.088-6.194,10.7,10.7,0,0,0-.1-1.5,10,10,0,0,0,1.323-5.01,9.116,9.116,0,0,0-.313-2.4Zm-43.5,15.974a2.185,2.185,0,1,1,.662-1.566,2.145,2.145,0,0,1-.662,1.566Zm40-18.792c-.5,1.068-1.12,1.614-1.86,1.637a4.755,4.755,0,0,1,.87,1.652,6.279,6.279,0,0,1,.346,1.931,5.5,5.5,0,0,1-1.844,4.142,4.794,4.794,0,0,1,.628,2.4,5.858,5.858,0,0,1-.611,2.557,3.868,3.868,0,0,1-1.652,1.827,11.8,11.8,0,0,1,.174,1.948q0,5.812-6.683,5.81H227.41q-4.561,0-11.9-2.538c-.117-.048-.452-.169-1.009-.367s-.968-.342-1.235-.434-.674-.227-1.218-.4-.987-.3-1.323-.384-.719-.156-1.149-.225a7.113,7.113,0,0,0-1.1-.1h-1.112V290.691h1.112a3.005,3.005,0,0,0,1.237-.315,5.882,5.882,0,0,0,1.391-.939q.714-.625,1.341-1.237a19.629,19.629,0,0,0,1.391-1.531q.766-.923,1.2-1.478t1.1-1.427q.663-.87.8-1.045,1.915-2.365,2.68-3.166a8.819,8.819,0,0,0,2.069-3.81q.647-2.315,1.061-4.368a5.778,5.778,0,0,1,1.324-2.96q3.341,0,4.453,1.637a9.082,9.082,0,0,1,1.114,5.046,14.22,14.22,0,0,1-1.671,5.585,14.178,14.178,0,0,0-1.669,5.552h12.249a4.292,4.292,0,0,1,3.1,1.339A4.242,4.242,0,0,1,243,290.689a6.826,6.826,0,0,1-.749,2.82Zm0,0" transform="translate(-194 -263.961)" fill="#fff"/>
  </g>
</svg>
