<svg xmlns="http://www.w3.org/2000/svg" xmlns:xlink="http://www.w3.org/1999/xlink" width="53.647" height="63.653" viewBox="0 0 53.647 63.653">
  <defs>
    <clipPath id="clip-path">
      <rect id="Rectangle_140" data-name="Rectangle 140" width="53.647" height="63.653" fill="#efefef"/>
    </clipPath>
  </defs>
  <g id="Group_177" data-name="Group 177" transform="translate(-233 -311)">
    <g id="Group_176" data-name="Group 176" transform="translate(233 311)">
      <g id="Group_175" data-name="Group 175" clip-path="url(#clip-path)">
        <path id="Path_209" data-name="Path 209" d="M286.236,327.334c-.033-1.713-.064-3.331-.064-4.9a2.221,2.221,0,0,0-2.22-2.22c-9.5,0-16.726-2.729-22.753-8.588a2.22,2.22,0,0,0-3.1,0c-6.025,5.859-13.255,8.588-22.751,8.588a2.221,2.221,0,0,0-2.22,2.22c0,1.565-.03,3.185-.063,4.9-.3,15.938-.722,37.767,25.856,46.98a2.212,2.212,0,0,0,1.454,0c26.578-9.213,26.162-31.041,25.858-46.981Zm-26.585,42.527c-22.793-8.28-22.449-26.418-22.143-42.442.018-.961.036-1.894.049-2.807,8.894-.375,16-3.071,22.094-8.373,6.089,5.3,13.2,8,22.1,8.373.013.913.03,1.846.049,2.806.305,16.023.649,34.163-22.145,42.443Zm0,0" transform="translate(-233 -311)" fill="#efefef"/>
      </g>
    </g>
    <path id="Path_210" data-name="Path 210" d="M293.2,374.761l-10.716,10.716-4.574-4.574a2.22,2.22,0,1,0-3.14,3.14l6.144,6.144a2.219,2.219,0,0,0,3.14,0L296.338,377.9a2.22,2.22,0,0,0-3.14-3.14Zm0,0" transform="translate(-25.9 -39.754)" fill="#efefef"/>
  </g>
</svg>
