<svg xmlns="http://www.w3.org/2000/svg" xmlns:xlink="http://www.w3.org/1999/xlink" width="43.116" height="50.64" viewBox="0 0 43.116 50.64">
  <defs>
    <clipPath id="clip-path">
      <rect id="Rectangle_146" data-name="Rectangle 146" width="43.116" height="50.64" fill="#efefef"/>
    </clipPath>
  </defs>
  <g id="Group_210" data-name="Group 210" transform="translate(-216 -292)">
    <g id="Group_207" data-name="Group 207" transform="translate(216 292)">
      <g id="Group_206" data-name="Group 206" transform="translate(0 0)" clip-path="url(#clip-path)">
        <path id="Path_279" data-name="Path 279" d="M219.666,381.211a1.447,1.447,0,1,0,2.894,0V369.9a1.447,1.447,0,0,0-2.47-1.024l-3.666,3.666a1.447,1.447,0,1,0,2.046,2.047l1.2-1.2Zm0,0" transform="translate(-216 -350.018)" fill="#efefef"/>
        <path id="Path_280" data-name="Path 280" d="M258.867,298.136l1.2-1.2v7.817a1.447,1.447,0,1,0,2.894,0v-11.31a1.448,1.448,0,0,0-2.471-1.023l-3.666,3.666a1.447,1.447,0,1,0,2.047,2.046Zm0,0" transform="translate(-246.656 -292)" fill="#efefef"/>
      </g>
    </g>
    <path id="Path_281" data-name="Path 281" d="M317.236,368.564a1.447,1.447,0,0,0-1.576.314l-3.666,3.666a1.447,1.447,0,0,0,2.046,2.047l1.2-1.2v7.816a1.447,1.447,0,1,0,2.894,0V369.9a1.448,1.448,0,0,0-.894-1.338Zm0,0" transform="translate(-72.524 -58.018)" fill="#efefef"/>
    <path id="Path_282" data-name="Path 282" d="M291.157,442.41a1.446,1.446,0,0,0-1.577.314l-3.666,3.666a1.447,1.447,0,1,0,2.047,2.046l1.2-1.2v4.282a1.447,1.447,0,1,0,2.894,0v-7.775a1.446,1.446,0,0,0-.894-1.337Zm0,0" transform="translate(-52.734 -114.056)" fill="#efefef"/>
    <g id="Group_209" data-name="Group 209" transform="translate(216 292)">
      <g id="Group_208" data-name="Group 208" transform="translate(0 0)" clip-path="url(#clip-path)">
        <path id="Path_283" data-name="Path 283" d="M267.3,377.687V373.43a4.978,4.978,0,0,0-4.973-4.973h-.072a4.978,4.978,0,0,0-4.973,4.973v4.258a4.978,4.978,0,0,0,4.973,4.973h.072a4.978,4.978,0,0,0,4.973-4.973Zm-2.894,0a2.081,2.081,0,0,1-2.079,2.079h-.072a2.081,2.081,0,0,1-2.079-2.079V373.43a2.081,2.081,0,0,1,2.079-2.079h.072a2.081,2.081,0,0,1,2.079,2.079Zm0,0" transform="translate(-247.326 -350.02)" fill="#efefef"/>
        <path id="Path_284" data-name="Path 284" d="M358.34,368.457h-.071a4.978,4.978,0,0,0-4.973,4.972v4.259a4.978,4.978,0,0,0,4.973,4.973h.071a4.978,4.978,0,0,0,4.973-4.973v-4.259a4.978,4.978,0,0,0-4.973-4.972Zm2.079,9.23a2.081,2.081,0,0,1-2.079,2.079h-.071a2.081,2.081,0,0,1-2.079-2.079V373.43a2.081,2.081,0,0,1,2.079-2.079h.071a2.081,2.081,0,0,1,2.079,2.079Zm0,0" transform="translate(-320.189 -350.02)" fill="#efefef"/>
        <path id="Path_285" data-name="Path 285" d="M302.723,292h-.071a4.978,4.978,0,0,0-4.973,4.973v4.259a4.978,4.978,0,0,0,4.973,4.973h.071a1.447,1.447,0,0,0,0-2.894h-.071a2.081,2.081,0,0,1-2.079-2.079v-4.259a2.081,2.081,0,0,1,2.079-2.079h.071a2.081,2.081,0,0,1,2.079,2.079,1.447,1.447,0,1,0,2.894,0A4.978,4.978,0,0,0,302.723,292Zm0,0" transform="translate(-277.983 -292)" fill="#efefef"/>
        <path id="Path_286" data-name="Path 286" d="M358.34,292h-.071a4.978,4.978,0,0,0-4.973,4.973v4.259a4.978,4.978,0,0,0,4.973,4.973h.071a4.978,4.978,0,0,0,4.973-4.973v-4.259A4.978,4.978,0,0,0,358.34,292Zm2.079,9.231a2.081,2.081,0,0,1-2.079,2.079h-.071a2.081,2.081,0,0,1-2.079-2.079v-4.259a2.081,2.081,0,0,1,2.079-2.079h.071a2.081,2.081,0,0,1,2.079,2.079Zm0,0" transform="translate(-320.189 -292)" fill="#efefef"/>
      </g>
    </g>
    <path id="Path_287" data-name="Path 287" d="M234.289,442.3h-.071a4.978,4.978,0,0,0-4.973,4.973v4.258a4.978,4.978,0,0,0,4.973,4.973h.071a4.978,4.978,0,0,0,4.973-4.973v-4.258a4.978,4.978,0,0,0-4.973-4.973Zm2.079,9.23a2.081,2.081,0,0,1-2.078,2.079h-.072a2.081,2.081,0,0,1-2.079-2.079v-4.258a2.081,2.081,0,0,1,2.079-2.079h.072a2.081,2.081,0,0,1,2.078,2.079Zm0,0" transform="translate(-10.052 -114.057)" fill="#efefef"/>
  </g>
</svg>
