<svg xmlns="http://www.w3.org/2000/svg" width="54.231" height="52.549" viewBox="0 0 54.231 52.549">
  <g id="Group_204" data-name="Group 204" transform="translate(-133 -229)">
    <path id="Path_274" data-name="Path 274" d="M151.686,260.743H135.12a2.123,2.123,0,0,0-2.12,2.12V279.43a2.122,2.122,0,0,0,2.12,2.119h16.566a2.122,2.122,0,0,0,2.12-2.119V262.863a2.122,2.122,0,0,0-2.12-2.12Zm.36,18.686a.365.365,0,0,1-.36.36H135.12a.365.365,0,0,1-.36-.36V262.863a.365.365,0,0,1,.36-.36h16.566a.365.365,0,0,1,.36.36ZM187.231,252.1a17.224,17.224,0,0,1-14.885,17.013.865.865,0,0,1-.118.008.88.88,0,0,1-.116-1.752,15.406,15.406,0,0,0,0-30.539.88.88,0,1,1,.234-1.743A17.224,17.224,0,0,1,187.231,252.1Zm-29.36.409h3.386a.88.88,0,0,0,.88-.88v-3.386a.88.88,0,0,0-.88-.88H157.87a.88.88,0,0,0-.88.88v3.386a.88.88,0,0,0,.88.88Zm.88-3.386h1.626v1.626H158.75Zm-1.76,15.887a.88.88,0,0,0,.88.88h3.386a.88.88,0,0,0,.88-.88v-3.386a.88.88,0,0,0-.88-.88H157.87a.88.88,0,0,0-.88.88Zm1.76-2.506h1.626v1.627H158.75Zm-10.983,9.384-1.778-1.413v-1.787a.88.88,0,0,0-.88-.88h-.827v-2.042a.88.88,0,1,0-1.759,0v2.042H141.7a.88.88,0,0,0-.88.88v1.787l-1.778,1.413a.881.881,0,0,0-.332.689v3.951a.879.879,0,0,0,.88.879h7.633a.879.879,0,0,0,.88-.879v-3.951a.881.881,0,0,0-.332-.689Zm-1.428,3.76h-5.874V273l1.778-1.413a.88.88,0,0,0,.333-.689v-1.331h1.653V270.9a.878.878,0,0,0,.333.689L146.34,273Zm23.338-45.767v44.441a.88.88,0,0,1-.88.88h-12.08a.88.88,0,1,1,0-1.76h11.2V230.76H137.934v27.072a.88.88,0,1,1-1.759,0V229.88a.879.879,0,0,1,.88-.88H168.8a.88.88,0,0,1,.88.88Zm-16.751,22.637H149.54a.879.879,0,0,0-.879.88v3.387a.879.879,0,0,0,.879.879h3.387a.879.879,0,0,0,.88-.879V253.4a.88.88,0,0,0-.88-.88Zm-.88,3.386H150.42v-1.626h1.626Zm22.907-3.8a4.881,4.881,0,0,0-3.057-4.529.88.88,0,1,1,.665-1.629,6.644,6.644,0,0,1,0,12.317.88.88,0,1,1-.665-1.629,4.881,4.881,0,0,0,3.057-4.529Zm0,0" transform="translate(0 0)" fill="#efefef"/>
  </g>
</svg>
