<svg xmlns="http://www.w3.org/2000/svg" width="53.832" height="56.11" viewBox="0 0 53.832 56.11">
  <g id="Group_205" data-name="Group 205" transform="translate(-150 -234)">
    <path id="Path_275" data-name="Path 275" d="M220.729,259.035A1.036,1.036,0,0,0,219.694,258H176.836a1.035,1.035,0,0,0-1.035,1.035v30.436a1.035,1.035,0,0,0,1.035,1.035h42.858a1.036,1.036,0,0,0,1.035-1.035Zm-42.858,29.4V283.77h8.572a2.761,2.761,0,1,0,0-2.071h-8.571v-2.3h15.878l2.6,2.6a2.765,2.765,0,1,0,1.492-1.436l-2.933-2.933a1.036,1.036,0,0,0-.732-.3H177.872v-2.036H206.32a2.76,2.76,0,1,0,0-2.071H177.872v-2.036H185a1.036,1.036,0,0,0,.732-.3l2.935-2.935a2.766,2.766,0,1,0-1.492-1.436l-2.6,2.6h-6.7v-9.041h40.787v2.552h-16.08a1.036,1.036,0,0,0-.732.3l-2.934,2.935A2.769,2.769,0,1,0,200.4,267.3l2.6-2.6h15.651v17.394h-8.227a2.76,2.76,0,1,0,0,2.071h8.227v4.278Zm10.439-5.7a.69.69,0,1,1,.69.69.692.692,0,0,1-.69-.69Zm10.56-.3a.69.69,0,1,1-.69.69.691.691,0,0,1,.69-.69Zm9.317-8.178a.69.69,0,1,1,.69.69.691.691,0,0,1-.69-.69ZM189,265.384a.69.69,0,1,1,.69.69.691.691,0,0,1-.69-.69Zm9.574,3.038a.69.69,0,1,1-.69-.69.692.692,0,0,1,.69.69Zm9.988,14.7a.69.69,0,1,1-.69-.69.691.691,0,0,1,.69.69Zm0,0" transform="translate(-21.349 -19.859)" fill="#efefef"/>
    <path id="Path_276" data-name="Path 276" d="M199.826,277.273H189.96v-2.484h9.392a4.174,4.174,0,0,0,4.169-4.169v-32.45A4.173,4.173,0,0,0,199.352,234H154.479a4.173,4.173,0,0,0-4.169,4.169v32.45a4.174,4.174,0,0,0,4.169,4.169h9.393v2.484h-9.865A4.012,4.012,0,0,0,150,281.279V286.1a4.012,4.012,0,0,0,4.007,4.007h45.819a4.011,4.011,0,0,0,4.006-4.007v-4.824a4.011,4.011,0,0,0-4.006-4.006Zm-47.444-6.654v-32.45a2.1,2.1,0,0,1,2.1-2.1h44.873a2.1,2.1,0,0,1,2.1,2.1v32.45a2.1,2.1,0,0,1-2.1,2.1H154.479a2.1,2.1,0,0,1-2.1-2.1Zm13.562,4.169H187.89v2.484H165.943ZM201.761,286.1a1.939,1.939,0,0,1-1.936,1.936H154.007a1.939,1.939,0,0,1-1.936-1.936v-4.824a1.939,1.939,0,0,1,1.936-1.936h45.819a1.938,1.938,0,0,1,1.936,1.936Zm0,0" fill="#efefef"/>
    <path id="Path_277" data-name="Path 277" d="M198.239,515.989H180.433a1.035,1.035,0,0,0,0,2.071h17.806a1.035,1.035,0,1,0,0-2.071Zm0,0" transform="translate(-24.325 -233.333)" fill="#efefef"/>
    <path id="Path_278" data-name="Path 278" d="M407.926,515.989H404.82a1.035,1.035,0,0,0,0,2.071h3.106a1.035,1.035,0,0,0,0-2.071Zm0,0" transform="translate(-209.995 -233.333)" fill="#efefef"/>
  </g>
</svg>
