<svg xmlns="http://www.w3.org/2000/svg" xmlns:xlink="http://www.w3.org/1999/xlink" width="63.96" height="38.481" viewBox="0 0 63.96 38.481">
  <defs>
    <clipPath id="clip-path">
      <rect id="Rectangle_148" data-name="Rectangle 148" width="63.96" height="38.481" fill="#efefef"/>
    </clipPath>
  </defs>
  <g id="Group_213" data-name="Group 213" transform="translate(-116 -283)">
    <path id="Path_288" data-name="Path 288" d="M195.186,301.421a1.133,1.133,0,0,0,.882-.4,1.383,1.383,0,0,0,.26-1.148l-.769-4.488a1.29,1.29,0,0,1,.295-.907l3.26-3.178a1.227,1.227,0,0,0-.713-2.193l-4.506-.655a1.289,1.289,0,0,1-.772-.56l-2.015-4.082a1.227,1.227,0,0,0-2.307,0l-2.015,4.083a1.292,1.292,0,0,1-.771.56l-4.506.655a1.227,1.227,0,0,0-.713,2.193l3.26,3.178a1.292,1.292,0,0,1,.295.906l-.77,4.488a1.383,1.383,0,0,0,.26,1.148,1.268,1.268,0,0,0,1.606.208l4.03-2.119a1.285,1.285,0,0,1,.953,0l4.03,2.119a1.55,1.55,0,0,0,.724.193Zm-5.23-4.024a2.7,2.7,0,0,0-1.231.278l-3.431,1.8.655-3.821a2.875,2.875,0,0,0-.76-2.341l-2.776-2.705,3.836-.558a2.875,2.875,0,0,0,1.991-1.446l1.715-3.476,1.715,3.476a2.876,2.876,0,0,0,1.991,1.446l3.836.558-2.776,2.706a2.877,2.877,0,0,0-.76,2.34l.655,3.821-3.431-1.8a2.7,2.7,0,0,0-1.231-.278Zm0,0" transform="translate(-53.472)" fill="#efefef"/>
    <g id="Group_212" data-name="Group 212" transform="translate(116 283)">
      <g id="Group_211" data-name="Group 211" transform="translate(0 0)" clip-path="url(#clip-path)">
        <path id="Path_289" data-name="Path 289" d="M327.784,301.421a1.133,1.133,0,0,0,.882-.4,1.383,1.383,0,0,0,.26-1.148l-.77-4.488a1.291,1.291,0,0,1,.295-.906l3.26-3.178a1.227,1.227,0,0,0-.713-2.193l-4.506-.655a1.291,1.291,0,0,1-.771-.56l-2.015-4.082a1.227,1.227,0,0,0-2.307,0l-2.015,4.082a1.29,1.29,0,0,1-.771.56l-4.506.655a1.227,1.227,0,0,0-.713,2.193l3.261,3.178a1.292,1.292,0,0,1,.295.906l-.77,4.488a1.383,1.383,0,0,0,.26,1.148,1.268,1.268,0,0,0,1.606.208l4.03-2.119a1.285,1.285,0,0,1,.953,0l4.03,2.119a1.552,1.552,0,0,0,.724.193Zm-5.231-4.024a2.692,2.692,0,0,0-1.23.278l-3.431,1.8.655-3.821a2.877,2.877,0,0,0-.761-2.341l-2.775-2.705,3.836-.558a2.877,2.877,0,0,0,1.991-1.446l1.715-3.476,1.715,3.476a2.874,2.874,0,0,0,1.991,1.446l3.836.558-2.776,2.706a2.875,2.875,0,0,0-.761,2.34l.655,3.821-3.431-1.8a2.7,2.7,0,0,0-1.231-.278Zm0,0" transform="translate(-279.69 -283)" fill="#efefef"/>
        <path id="Path_290" data-name="Path 290" d="M134.073,407.372l-4.506-.655a1.289,1.289,0,0,1-.771-.56l-2.016-4.083a1.227,1.227,0,0,0-2.306,0l-2.015,4.082a1.288,1.288,0,0,1-.771.56l-4.506.655a1.227,1.227,0,0,0-.713,2.194l3.26,3.178a1.289,1.289,0,0,1,.295.907l-.769,4.487a1.383,1.383,0,0,0,.26,1.148,1.268,1.268,0,0,0,1.605.208l4.03-2.118a1.276,1.276,0,0,1,.953,0l4.03,2.118a1.549,1.549,0,0,0,.723.193,1.132,1.132,0,0,0,.882-.4,1.383,1.383,0,0,0,.26-1.148l-.769-4.487a1.289,1.289,0,0,1,.295-.907l3.26-3.178a1.227,1.227,0,0,0-.713-2.194Zm-3.679,4.212a2.876,2.876,0,0,0-.76,2.341l.655,3.82-3.43-1.8a2.86,2.86,0,0,0-2.461,0l-3.431,1.8.655-3.82a2.877,2.877,0,0,0-.761-2.341l-2.776-2.705,3.836-.558a2.873,2.873,0,0,0,1.991-1.447l1.715-3.475,1.715,3.476a2.876,2.876,0,0,0,1.991,1.446l3.836.558Zm0,0" transform="translate(-116.001 -381.305)" fill="#efefef"/>
        <path id="Path_291" data-name="Path 291" d="M266.249,407.372l-4.506-.655a1.29,1.29,0,0,1-.771-.56l-2.015-4.083a1.227,1.227,0,0,0-2.307,0l-2.015,4.082a1.289,1.289,0,0,1-.771.56l-4.506.655a1.227,1.227,0,0,0-.713,2.194l3.261,3.178a1.293,1.293,0,0,1,.295.907l-.77,4.487a1.383,1.383,0,0,0,.26,1.148,1.269,1.269,0,0,0,1.606.208l4.03-2.118a1.276,1.276,0,0,1,.953,0l4.03,2.118a1.551,1.551,0,0,0,.723.193,1.134,1.134,0,0,0,.883-.4,1.385,1.385,0,0,0,.26-1.148l-.769-4.487a1.292,1.292,0,0,1,.295-.907l3.26-3.178a1.227,1.227,0,0,0-.713-2.194Zm-3.679,4.212a2.877,2.877,0,0,0-.76,2.341l.655,3.82-3.431-1.8a2.86,2.86,0,0,0-2.461,0l-3.431,1.8.655-3.82a2.876,2.876,0,0,0-.761-2.341l-2.776-2.706,3.836-.558a2.877,2.877,0,0,0,1.992-1.446L257.8,403.4l1.715,3.476a2.877,2.877,0,0,0,1.991,1.446l3.836.558Zm0,0" transform="translate(-225.868 -381.305)" fill="#efefef"/>
        <path id="Path_292" data-name="Path 292" d="M399.138,409.562a1.227,1.227,0,0,0-.713-2.194l-4.506-.655a1.289,1.289,0,0,1-.771-.56l-2.015-4.083a1.227,1.227,0,0,0-2.307,0l-2.015,4.082a1.289,1.289,0,0,1-.771.56l-4.506.655a1.227,1.227,0,0,0-.713,2.194l3.26,3.178a1.291,1.291,0,0,1,.295.907l-.77,4.487a1.385,1.385,0,0,0,.26,1.148,1.133,1.133,0,0,0,.883.4,1.551,1.551,0,0,0,.723-.193l4.03-2.118a1.277,1.277,0,0,1,.953,0l4.03,2.119a1.268,1.268,0,0,0,1.605-.208,1.382,1.382,0,0,0,.26-1.148l-.77-4.487a1.292,1.292,0,0,1,.295-.907Zm-4.391,2.018a2.876,2.876,0,0,0-.761,2.341l.655,3.82-3.431-1.8a2.86,2.86,0,0,0-2.461,0l-3.431,1.8.655-3.82a2.876,2.876,0,0,0-.76-2.341l-2.776-2.706,3.836-.558a2.876,2.876,0,0,0,1.992-1.446l1.715-3.476,1.715,3.476a2.874,2.874,0,0,0,1.991,1.446l3.836.558Zm0,0" transform="translate(-335.736 -381.302)" fill="#efefef"/>
      </g>
    </g>
  </g>
</svg>
