<svg xmlns="http://www.w3.org/2000/svg" width="65.576" height="65.578" viewBox="0 0 65.576 65.578">
  <g id="dart-board" transform="translate(-11 -11.2)">
    <path id="Path_348" data-name="Path 348" d="M76.159,66.215,68.5,58.52a1.569,1.569,0,0,0-1.111-.415l-5.875.669a29.206,29.206,0,1,0-2.944,2.917l-.669,5.795a1.6,1.6,0,0,0,.415,1.124l7.655,7.695a1.349,1.349,0,0,0,2.369-.977l.7-6.156,6.263-.7a1.315,1.315,0,0,0,.856-2.262ZM13.784,40.039A26.029,26.029,0,1,1,59.3,57.3L54.64,52.645A19.473,19.473,0,1,0,39.812,59.51,19.363,19.363,0,0,0,52.7,54.626l4.657,4.657A26.031,26.031,0,0,1,13.784,40.039ZM48.27,46.275A10.321,10.321,0,0,0,50.4,40.039a10.674,10.674,0,1,0-4.068,8.217l4.5,4.5A16.816,16.816,0,1,1,39.812,23.257,17.017,17.017,0,0,1,56.661,40.052a16.7,16.7,0,0,1-3.894,10.733Zm-5.527-5.54a1.382,1.382,0,0,0-1.954,1.954l3.653,3.653a7.716,7.716,0,0,1-4.63,1.526,7.821,7.821,0,1,1,6.531-3.546ZM60.7,67.058l.4-4.041,5.259,5.259-.375,3.961L60.7,67.058Zm7.722-.629-5.166-5.166,3.573-.361,5.286,5.179Z" transform="translate(0)" fill="#1976d2"/>
  </g>
</svg>
