<svg xmlns="http://www.w3.org/2000/svg" width="81.342" height="67.313" viewBox="0 0 81.342 67.313">
  <path id="analytic" d="M81.342,41.632v-18.8H62.535v5.294H72.3l-7.532,7.532A28.647,28.647,0,0,0,12.026,57.677L0,69.7l3.744,3.744L14.359,62.831a28.617,28.617,0,0,0,43.113,7.737L74.089,87.185l3.744-3.744L61.215,66.825a28.588,28.588,0,0,0,5.629-25.749l9.2-9.2v9.757h5.3Zm-65.528,6.9a23.36,23.36,0,0,1,44.968-8.879L47.966,52.467,32.6,37.1,16.323,53.379A23.349,23.349,0,0,1,15.814,48.53Zm46.726,0a23.358,23.358,0,0,1-44.276,10.4L32.6,44.589,47.967,59.954l14.38-14.379A23.53,23.53,0,0,1,62.54,48.53Z" transform="translate(0 -19.872)" fill="#1976d2"/>
</svg>
