<svg id="clock" xmlns="http://www.w3.org/2000/svg" width="64.818" height="64.818" viewBox="0 0 64.818 64.818">
  <path id="Path_331" data-name="Path 331" d="M55.325,9.492A32.409,32.409,0,0,0,9.492,55.325,32.409,32.409,0,0,0,55.325,9.492Zm-1.432,44.4A30.383,30.383,0,0,1,10.925,10.925,30.383,30.383,0,0,1,53.893,53.893Z" fill="#1976d2"/>
  <path id="Path_332" data-name="Path 332" d="M34.026,60.358a26.336,26.336,0,0,1,40.961-21.9,1.013,1.013,0,1,0,1.127-1.683A28.359,28.359,0,0,0,39.22,79.262a1.013,1.013,0,0,0,1.509-1.351A26.287,26.287,0,0,1,34.026,60.358Z" transform="translate(-27.949 -27.949)" fill="#1976d2"/>
  <path id="Path_333" data-name="Path 333" d="M153.8,128.446a1.013,1.013,0,1,0-1.683,1.127,26.334,26.334,0,0,1-38.479,35.087,1.013,1.013,0,0,0-1.276,1.573A28.36,28.36,0,0,0,153.8,128.446Z" transform="translate(-97.812 -111.792)" fill="#1976d2"/>
  <path id="Path_334" data-name="Path 334" d="M392.33,88.761a26.559,26.559,0,0,1,1.951,1.938,1.013,1.013,0,0,0,1.5-1.361,28.64,28.64,0,0,0-2.1-2.086,1.013,1.013,0,0,0-1.351,1.509Z" transform="translate(-342.368 -75.98)" fill="#1976d2"/>
  <path id="Path_335" data-name="Path 335" d="M249.013,69.064a1.013,1.013,0,0,0,1.013-1.013V65.013a1.013,1.013,0,1,0-2.026,0v3.038A1.013,1.013,0,0,0,249.013,69.064Z" transform="translate(-216.604 -55.898)" fill="#1976d2"/>
  <path id="Path_336" data-name="Path 336" d="M248,409.013v3.038a1.013,1.013,0,1,0,2.026,0v-3.038a1.013,1.013,0,0,0-2.026,0Z" transform="translate(-216.604 -356.348)" fill="#1976d2"/>
  <path id="Path_337" data-name="Path 337" d="M69.064,249.013A1.013,1.013,0,0,0,68.051,248H65.013a1.013,1.013,0,1,0,0,2.026h3.038A1.013,1.013,0,0,0,69.064,249.013Z" transform="translate(-55.898 -216.604)" fill="#1976d2"/>
  <path id="Path_338" data-name="Path 338" d="M408,249.013a1.013,1.013,0,0,0,1.013,1.013h3.038a1.013,1.013,0,1,0,0-2.026h-3.038A1.013,1.013,0,0,0,408,249.013Z" transform="translate(-356.348 -216.604)" fill="#1976d2"/>
  <path id="Path_339" data-name="Path 339" d="M159.408,91.788l-1.519-2.631a1.013,1.013,0,1,0-1.754,1.013l1.519,2.631a1.013,1.013,0,1,0,1.754-1.013Z" transform="translate(-136.25 -77.427)" fill="#1976d2"/>
  <path id="Path_340" data-name="Path 340" d="M329.889,387.07a1.013,1.013,0,0,0-1.754,1.013l1.519,2.631a1.013,1.013,0,0,0,1.754-1.013Z" transform="translate(-286.475 -337.626)" fill="#1976d2"/>
  <path id="Path_341" data-name="Path 341" d="M89.665,331.545a1.009,1.009,0,0,0,.506-.136L92.8,329.89a1.013,1.013,0,1,0-1.013-1.754l-2.631,1.519a1.013,1.013,0,0,0,.507,1.89Z" transform="translate(-77.428 -286.476)" fill="#1976d2"/>
  <path id="Path_342" data-name="Path 342" d="M387.577,159.545a1.009,1.009,0,0,0,.505-.136l2.631-1.519a1.013,1.013,0,0,0-1.013-1.754l-2.631,1.519a1.013,1.013,0,0,0,.507,1.89Z" transform="translate(-337.625 -136.251)" fill="#1976d2"/>
  <path id="Path_343" data-name="Path 343" d="M331.037,88.785a1.013,1.013,0,0,0-1.383.371l-1.519,2.631a1.013,1.013,0,1,0,1.754,1.013l1.519-2.631A1.013,1.013,0,0,0,331.037,88.785Z" transform="translate(-286.475 -77.427)" fill="#1976d2"/>
  <path id="Path_344" data-name="Path 344" d="M159.037,386.7a1.013,1.013,0,0,0-1.383.371l-1.519,2.631a1.013,1.013,0,1,0,1.754,1.013l1.519-2.631A1.013,1.013,0,0,0,159.037,386.7Z" transform="translate(-136.25 -337.625)" fill="#1976d2"/>
  <path id="Path_345" data-name="Path 345" d="M387.07,329.889l2.631,1.519a1.013,1.013,0,1,0,1.013-1.754l-2.631-1.519a1.013,1.013,0,0,0-1.013,1.754Z" transform="translate(-337.626 -286.475)" fill="#1976d2"/>
  <path id="Path_346" data-name="Path 346" d="M92.8,157.654l-2.631-1.519a1.013,1.013,0,1,0-1.013,1.754l2.631,1.519a1.013,1.013,0,1,0,1.013-1.754Z" transform="translate(-77.427 -136.25)" fill="#1976d2"/>
  <path id="Path_347" data-name="Path 347" d="M242.089,150.44a1.013,1.013,0,0,0,.876-1.519l-5.618-9.731a3.035,3.035,0,0,0-1.3-4.837v-13.34a1.013,1.013,0,0,0-2.026,0v13.34a3.038,3.038,0,0,0,1.568,5.851l5.618,9.73A1.012,1.012,0,0,0,242.089,150.44Zm-8.063-13.223a1.013,1.013,0,1,1,1.013,1.013A1.014,1.014,0,0,1,234.026,137.217Z" transform="translate(-202.63 -104.808)" fill="#1976d2"/>
</svg>
