<svg xmlns="http://www.w3.org/2000/svg" width="16.3" height="12.807" viewBox="0 0 16.3 12.807">
  <g id="Group_187" data-name="Group 187" transform="translate(-1239 -538.858)">
    <path id="Path_57" data-name="Path 57" d="M1255.558,578.415a1.392,1.392,0,0,0,.953-.36l-4.617-4.618-.32.23q-.519.382-.841.6a5.252,5.252,0,0,1-.86.436,2.626,2.626,0,0,1-1,.223h-.018a2.624,2.624,0,0,1-1-.223,5.163,5.163,0,0,1-.86-.436q-.322-.214-.841-.6c-.1-.071-.2-.148-.319-.231l-4.619,4.619a1.393,1.393,0,0,0,.954.36Zm0,0" transform="translate(-1.714 -26.75)" fill="#1976d2"/>
    <path id="Path_58" data-name="Path 58" d="M1239.919,557.891a4.847,4.847,0,0,1-.919-.791v7.026l4.07-4.07q-1.221-.853-3.151-2.164Zm0,0" transform="translate(0 -14.112)" fill="#1976d2"/>
    <path id="Path_59" data-name="Path 59" d="M1296.186,557.891q-1.858,1.257-3.159,2.166l4.069,4.069V557.1a5.047,5.047,0,0,1-.91.791Zm0,0" transform="translate(-41.796 -14.112)" fill="#1976d2"/>
    <path id="Path_60" data-name="Path 60" d="M1253.844,538.858h-13.388a1.3,1.3,0,0,0-1.078.473,1.832,1.832,0,0,0-.378,1.182,2.126,2.126,0,0,0,.5,1.242,4.52,4.52,0,0,0,1.064,1.05q.309.218,1.865,1.3c.56.387,1.046.726,1.465,1.018.356.249.664.463.918.642l.135.1.251.181q.3.214.491.345c.131.088.288.187.473.3a2.737,2.737,0,0,0,.523.245,1.44,1.44,0,0,0,.455.082h.018a1.445,1.445,0,0,0,.456-.082,2.742,2.742,0,0,0,.522-.245c.185-.109.342-.208.473-.3s.294-.2.492-.345l.25-.181.136-.1.921-.64,3.336-2.316a4.327,4.327,0,0,0,1.11-1.119,2.4,2.4,0,0,0,.446-1.373,1.468,1.468,0,0,0-1.456-1.455Zm0,0" fill="#1976d2"/>
  </g>
</svg>
