<svg id="Group_255" data-name="Group 255" xmlns="http://www.w3.org/2000/svg" width="188.326" height="40.228" viewBox="0 0 188.326 40.228">
  <g id="Group_249" data-name="Group 249" transform="translate(52.266 6.268)">
    <path id="Path_379" data-name="Path 379" d="M201.933,300.508l-1.123,3.181h-.094a22.549,22.549,0,0,0-1.091-3.118l-6.019-15.125h-5.894v24.106h3.9V294.676c0-.936,0-2-.031-3.306-.031-.655-.093-1.154-.125-1.528h.094a14.6,14.6,0,0,0,.561,2.058l7.235,17.588h2.744l7.173-17.744a18.878,18.878,0,0,0,.468-1.9h.094c-.094,1.777-.156,3.368-.187,4.335v15.281h4.148V285.383h-5.676Zm15.779-8.326h4.054v17.276h-4.054Zm2.058-7.3a2.429,2.429,0,0,0-1.715.686,2.3,2.3,0,0,0,0,3.337,2.4,2.4,0,0,0,1.715.655,2.485,2.485,0,0,0,1.715-.655,2.194,2.194,0,0,0,.717-1.653,2.312,2.312,0,0,0-.717-1.684,2.274,2.274,0,0,0-1.715-.686m16.372,7.141a11.292,11.292,0,0,0-2.276-.249,9.783,9.783,0,0,0-4.927,1.216,8.145,8.145,0,0,0-3.243,3.337,10.609,10.609,0,0,0-1.122,4.99,9.255,9.255,0,0,0,1.091,4.459,7.475,7.475,0,0,0,3.056,3.087,9,9,0,0,0,4.459,1.092,9.8,9.8,0,0,0,4.9-1.154l.031-.031V305.03l-.156.125a6.966,6.966,0,0,1-1.965,1.029,6,6,0,0,1-1.934.375,4.783,4.783,0,0,1-3.8-1.5,5.752,5.752,0,0,1-1.4-4.085,5.9,5.9,0,0,1,1.434-4.21,5,5,0,0,1,3.8-1.559,6.638,6.638,0,0,1,3.867,1.31l.156.125V292.68l-.031-.031a9.4,9.4,0,0,0-1.934-.624m13.378-.125a4.277,4.277,0,0,0-2.744.967,5.818,5.818,0,0,0-1.559,2.339h-.031v-3.025h-4.054v17.276h4.054v-8.825a5.95,5.95,0,0,1,1-3.649,3.125,3.125,0,0,1,2.619-1.4,10.034,10.034,0,0,1,1.216.156,3.2,3.2,0,0,1,.967.406l.156.125v-4.054l-.094-.031a3.08,3.08,0,0,0-1.528-.281m11.039-.094a8.94,8.94,0,0,0-6.7,2.495,9.289,9.289,0,0,0-2.4,6.8,8.89,8.89,0,0,0,2.37,6.455,9.738,9.738,0,0,0,12.911-.156,9.258,9.258,0,0,0,2.4-6.7,9.024,9.024,0,0,0-2.276-6.518,8.208,8.208,0,0,0-6.3-2.37m3.243,13.285a4.087,4.087,0,0,1-3.4,1.434,4.259,4.259,0,0,1-3.493-1.5,6.161,6.161,0,0,1-1.247-4.148,6.548,6.548,0,0,1,1.247-4.241,4.289,4.289,0,0,1,3.462-1.5,4.146,4.146,0,0,1,3.368,1.435,6.4,6.4,0,0,1,1.247,4.21,7.215,7.215,0,0,1-1.185,4.3m14.376-5.738a9.717,9.717,0,0,1-2.464-1.279,1.771,1.771,0,0,1-.468-1.31,1.448,1.448,0,0,1,.655-1.247,3,3,0,0,1,1.777-.468,8.079,8.079,0,0,1,2.089.312,5.379,5.379,0,0,1,1.809.842l.156.125v-3.8l-.094-.031a11.253,11.253,0,0,0-1.84-.53,12.5,12.5,0,0,0-2-.187,7.226,7.226,0,0,0-4.771,1.5,4.611,4.611,0,0,0-1.84,3.8,4.952,4.952,0,0,0,.405,2.121,4.729,4.729,0,0,0,1.247,1.622,10.88,10.88,0,0,0,2.495,1.4c.936.405,1.653.717,2.089.967a4.231,4.231,0,0,1,.936.748,1.775,1.775,0,0,1,.249.967c0,1.154-.873,1.715-2.651,1.715a7,7,0,0,1-2.246-.405,8.683,8.683,0,0,1-2.276-1.154l-.156-.125V308.9l.094.031a12.109,12.109,0,0,0,2.183.686,13.933,13.933,0,0,0,2.339.281,7.594,7.594,0,0,0,5.021-1.5,4.775,4.775,0,0,0,1.9-3.929,4.373,4.373,0,0,0-1-2.962,12.647,12.647,0,0,0-3.649-2.152m15.343-7.547a8.94,8.94,0,0,0-6.7,2.495,9.419,9.419,0,0,0-2.4,6.8,8.889,8.889,0,0,0,2.37,6.455A9.738,9.738,0,0,0,299.7,307.4a9.258,9.258,0,0,0,2.4-6.7,9.024,9.024,0,0,0-2.276-6.518,8.208,8.208,0,0,0-6.3-2.37m3.212,13.285a4.088,4.088,0,0,1-3.4,1.434,4.219,4.219,0,0,1-3.493-1.5,6.161,6.161,0,0,1-1.248-4.148,6.548,6.548,0,0,1,1.248-4.241,4.289,4.289,0,0,1,3.461-1.5,4.189,4.189,0,0,1,3.368,1.435,6.4,6.4,0,0,1,1.248,4.21,6.805,6.805,0,0,1-1.185,4.3" transform="translate(-187.712 -283.605)" fill="#737373"/>
    <path id="Path_380" data-name="Path 380" d="M589.246,292.563v-3.337h-4.085v-5.114l-.125.031-3.867,1.154-.094.031v3.9h-6.112v-2.183a3.419,3.419,0,0,1,.686-2.276,2.422,2.422,0,0,1,1.9-.748,4.553,4.553,0,0,1,1.809.405l.156.094v-3.524l-.094-.031a7.8,7.8,0,0,0-5.52.436,5.413,5.413,0,0,0-2.214,2.214,6.382,6.382,0,0,0-.81,3.212v2.4H568.04v3.306h2.838V306.5h4.085V292.563h6.112v8.888c0,3.649,1.715,5.489,5.146,5.489a10.682,10.682,0,0,0,1.715-.187,5.611,5.611,0,0,0,1.279-.405l.031-.031v-3.337l-.156.125a2.632,2.632,0,0,1-.842.374,2.865,2.865,0,0,1-.811.125,2.161,2.161,0,0,1-1.778-.655,3.378,3.378,0,0,1-.561-2.214v-8.17Z" transform="translate(-453.186 -280.65)" fill="#737373"/>
  </g>
  <path id="Path_381" data-name="Path 381" d="M14.639,259.894H33.755V279.01H14.639Z" transform="translate(-14.639 -259.894)" fill="#f25022"/>
  <path id="Path_382" data-name="Path 382" d="M84.55,259.894h19.116V279.01H84.55Z" transform="translate(-63.438 -259.894)" fill="#7fba00"/>
  <path id="Path_383" data-name="Path 383" d="M14.639,329.8H33.755v19.116H14.639Z" transform="translate(-14.639 -308.693)" fill="#00a4ef"/>
  <path id="Path_384" data-name="Path 384" d="M84.55,329.8h19.116v19.116H84.55Z" transform="translate(-63.438 -308.693)" fill="#ffb900"/>
</svg>
