<svg xmlns="http://www.w3.org/2000/svg" width="51.913" height="55.194" viewBox="0 0 51.913 55.194">
  <g id="Group_96" data-name="Group 96" transform="translate(-1096 -376.858)">
    <path id="Path_68" data-name="Path 68" d="M1140.839,397.846v-2.122a19.386,19.386,0,0,0-5.055-13.3,17.439,17.439,0,0,0-12.941-5.566h-1.751a17.439,17.439,0,0,0-12.941,5.566,19.385,19.385,0,0,0-5.055,13.3v2.122a7.615,7.615,0,0,0-7.1,7.583v3.316a7.606,7.606,0,0,0,7.595,7.595h4.279a1.4,1.4,0,0,0,1.391-1.391V399.214a1.4,1.4,0,0,0-1.391-1.391h-1.995v-2.1c0-9.172,6.54-16.083,15.2-16.083h1.751c8.673,0,15.2,6.911,15.2,16.083v2.1h-1.995a1.4,1.4,0,0,0-1.391,1.391v15.723a1.4,1.4,0,0,0,1.391,1.392h1.948c-.568,7.258-5.566,8.94-7.885,9.323a4.894,4.894,0,0,0-4.65-3.375h-3.479a4.888,4.888,0,0,0,0,9.775h3.491a4.895,4.895,0,0,0,4.708-3.595,13.168,13.168,0,0,0,4.719-1.612c2.516-1.473,5.5-4.476,5.891-10.529a7.6,7.6,0,0,0,7.131-7.583v-3.317a7.575,7.575,0,0,0-7.073-7.571Zm-34.334,15.7h-2.887a4.815,4.815,0,0,1-4.812-4.812v-3.317a4.815,4.815,0,0,1,4.812-4.812h2.887Zm18.958,15.723h-3.491a2.1,2.1,0,0,1,0-4.2h3.491a2.1,2.1,0,1,1,0,4.2Zm19.677-20.535a4.815,4.815,0,0,1-4.812,4.812h-2.887V400.605h2.887a4.815,4.815,0,0,1,4.812,4.812Zm0,0" fill="#fff"/>
  </g>
</svg>
