<svg xmlns="http://www.w3.org/2000/svg" width="61.67" height="61.36" viewBox="0 0 61.67 61.36">
  <g id="edit" transform="translate(0 -0.261)">
    <path id="Path_356" data-name="Path 356" d="M56.919,71.7a1.536,1.536,0,0,0-1.536,1.536V86.876a4.612,4.612,0,0,1-4.608,4.608H7.679a4.612,4.612,0,0,1-4.608-4.608V46.852a4.613,4.613,0,0,1,4.608-4.608H21.317a1.536,1.536,0,1,0,0-3.072H7.679A7.688,7.688,0,0,0,0,46.852V86.876a7.688,7.688,0,0,0,7.679,7.679h43.1a7.688,7.688,0,0,0,7.679-7.679V73.238A1.536,1.536,0,0,0,56.919,71.7Zm0,0" transform="translate(0 -32.935)" fill="#a459f0"/>
    <path id="Path_357" data-name="Path 357" d="M149.42,2.285a6.912,6.912,0,0,0-9.775,0l-27.4,27.4a1.536,1.536,0,0,0-.394.676l-3.6,13.009a1.536,1.536,0,0,0,1.89,1.89l13.009-3.6a1.535,1.535,0,0,0,.676-.394l27.4-27.4a6.919,6.919,0,0,0,0-9.775Zm-33.829,28.4L138.016,8.258l7.233,7.233L122.822,37.917Zm-1.445,2.9,5.778,5.779-7.993,2.214Zm34.9-21.894-1.629,1.629-7.233-7.233,1.63-1.629a3.839,3.839,0,0,1,5.43,0l1.8,1.8A3.845,3.845,0,0,1,149.05,11.69Zm0,0" transform="translate(-91.573)" fill="#a459f0"/>
  </g>
</svg>
