<svg xmlns="http://www.w3.org/2000/svg" width="56.493" height="51.313" viewBox="0 0 56.493 51.313">
  <g id="paper-pencil-and-calculator" transform="translate(0 -1.452)">
    <g id="Group_247" data-name="Group 247" transform="translate(0 1.452)">
      <path id="Path_349" data-name="Path 349" d="M5.74,23.053,3.564,18.547V39.318l22.344.05V37.19L5.74,37.149Z" transform="translate(2.793 11.945)" fill="#1976d2"/>
      <path id="Path_350" data-name="Path 350" d="M35.67,13.467v1.125h2.18v-4.3L28.978,1.452H3.564V7.477H5.74V3.63H26.693v9.839l8.977,0Zm-6.8-9.049,6.8,6.78v.093h-6.8Z" transform="translate(2.793 -1.452)" fill="#1976d2"/>
      <path id="Path_351" data-name="Path 351" d="M39.944,9.863l-19.16-.012c-.057,0-.157-.011-.287-.011a3.35,3.35,0,0,0-3.476,3.665V46.177H43.154V13.5A3.8,3.8,0,0,0,39.944,9.863ZM41.4,44.351H18.766V13.5a1.593,1.593,0,0,1,1.73-1.839c.084,0,.139.005.148.005l19.062.005c.325.075,1.7.476,1.7,1.826V44.351Z" transform="translate(13.338 5.121)" fill="#1976d2"/>
      <rect id="Rectangle_190" data-name="Rectangle 190" width="8.235" height="2.281" transform="translate(34.138 29.174)" fill="#1976d2"/>
      <rect id="Rectangle_191" data-name="Rectangle 191" width="8.239" height="2.281" transform="translate(44.458 29.174)" fill="#1976d2"/>
      <rect id="Rectangle_192" data-name="Rectangle 192" width="3.314" height="3.507" transform="translate(34.234 33.435)" fill="#1976d2"/>
      <rect id="Rectangle_193" data-name="Rectangle 193" width="3.318" height="3.507" transform="translate(39.132 33.435)" fill="#1976d2"/>
      <rect id="Rectangle_194" data-name="Rectangle 194" width="3.316" height="3.507" transform="translate(44.208 33.435)" fill="#1976d2"/>
      <rect id="Rectangle_195" data-name="Rectangle 195" width="3.314" height="3.507" transform="translate(49.408 33.435)" fill="#1976d2"/>
      <rect id="Rectangle_196" data-name="Rectangle 196" width="3.316" height="3.508" transform="translate(34.234 38.363)" fill="#1976d2"/>
      <rect id="Rectangle_197" data-name="Rectangle 197" width="3.319" height="3.508" transform="translate(39.132 38.363)" fill="#1976d2"/>
      <rect id="Rectangle_198" data-name="Rectangle 198" width="3.318" height="3.508" transform="translate(44.11 38.363)" fill="#1976d2"/>
      <rect id="Rectangle_199" data-name="Rectangle 199" width="3.314" height="3.508" transform="translate(49.312 38.363)" fill="#1976d2"/>
      <rect id="Rectangle_200" data-name="Rectangle 200" width="3.314" height="3.505" transform="translate(34.122 43.293)" fill="#1976d2"/>
      <rect id="Rectangle_201" data-name="Rectangle 201" width="3.318" height="3.505" transform="translate(39.023 43.293)" fill="#1976d2"/>
      <rect id="Rectangle_202" data-name="Rectangle 202" width="3.316" height="3.505" transform="translate(44.208 43.293)" fill="#1976d2"/>
      <rect id="Rectangle_203" data-name="Rectangle 203" width="3.312" height="3.505" transform="translate(49.312 43.293)" fill="#1976d2"/>
      <path id="Path_352" data-name="Path 352" d="M37.705,12.579H19.13v6.737H37.705ZM29.24,17.712H28.3V15.79h-.742V15.1a1.4,1.4,0,0,0,.335-.03.947.947,0,0,0,.3-.12.647.647,0,0,0,.214-.225.737.737,0,0,0,.095-.348h.744Zm3.715,0H30.221a1.322,1.322,0,0,1,.046-.451,1.214,1.214,0,0,1,.18-.375,1.893,1.893,0,0,1,.227-.268,3.122,3.122,0,0,1,.278-.23c.1-.075.2-.141.307-.209s.209-.13.307-.193c.037-.027.084-.055.134-.087a.906.906,0,0,0,.141-.105.692.692,0,0,0,.109-.13.284.284,0,0,0,.043-.162.392.392,0,0,0-.111-.319.418.418,0,0,0-.269-.087.4.4,0,0,0-.378.187.941.941,0,0,0-.1.5h-.854a1.717,1.717,0,0,1,.068-.614,1.123,1.123,0,0,1,.694-.733,1.62,1.62,0,0,1,.573-.1,1.923,1.923,0,0,1,.523.066,1.206,1.206,0,0,1,.408.194.853.853,0,0,1,.26.328,1.087,1.087,0,0,1,.095.464,1.02,1.02,0,0,1-.132.54,1.408,1.408,0,0,1-.335.385,2.628,2.628,0,0,1-.449.3c-.162.089-.319.182-.467.278V16.9h1.431v.815Zm2.954-.676a.934.934,0,0,1-.212.341,1.228,1.228,0,0,1-.408.266,1.687,1.687,0,0,1-.642.109,2.01,2.01,0,0,1-.6-.078,1.33,1.33,0,0,1-.4-.2.93.93,0,0,1-.239-.276,1.227,1.227,0,0,1-.123-.3,1.094,1.094,0,0,1-.037-.268c0-.078,0-.141,0-.182h.862a.518.518,0,0,0,.121.4.326.326,0,0,0,.161.114.658.658,0,0,0,.219.034.513.513,0,0,0,.307-.084.335.335,0,0,0,.112-.291.368.368,0,0,0-.037-.178.294.294,0,0,0-.095-.1.321.321,0,0,0-.136-.052,1.523,1.523,0,0,0-.153-.012.9.9,0,0,0-.157.009.935.935,0,0,0-.109.016v-.651c.032,0,.07.007.111.011a1.163,1.163,0,0,0,.153.009,1.4,1.4,0,0,0,.146-.009.437.437,0,0,0,.139-.043A.327.327,0,0,0,35,15.522a.275.275,0,0,0,.037-.155A.241.241,0,0,0,35,15.231a.267.267,0,0,0-.1-.091.484.484,0,0,0-.132-.05.7.7,0,0,0-.143-.016.577.577,0,0,0-.175.027.342.342,0,0,0-.139.078.415.415,0,0,0-.095.13.411.411,0,0,0-.03.182h-.853a1.2,1.2,0,0,1,.109-.514,1.026,1.026,0,0,1,.285-.359,1.283,1.283,0,0,1,.416-.209,1.789,1.789,0,0,1,.5-.071,1.519,1.519,0,0,1,.578.095,1.226,1.226,0,0,1,.376.227.841.841,0,0,1,.2.284.694.694,0,0,1,.062.253,1.013,1.013,0,0,1-.066.407.6.6,0,0,1-.143.209.335.335,0,0,1-.146.08.2.2,0,0,0-.064.021v.005c0,.005.012.012.037.018a.486.486,0,0,1,.095.037,1.117,1.117,0,0,1,.127.073.457.457,0,0,1,.123.13.691.691,0,0,1,.095.212,1.1,1.1,0,0,1,.037.312A.772.772,0,0,1,35.909,17.036Z" transform="translate(14.992 7.268)" fill="#1976d2"/>
      <path id="Path_353" data-name="Path 353" d="M20.3,42.995l-.1-10.59L10.6,12.392l.014-.005L7.532,5.98,0,9.606l3.086,6.407.011,0L12.655,35.86Zm-4.484-7.219.225-2.258L18.1,34.678l1.013-2.829.316.651.052,6.045-1.866.9-4.293-3.985-.435-.906ZM3.221,12.7,2.08,10.336,6.807,8.062,7.95,10.432Z" transform="translate(0 2.096)" fill="#1976d2"/>
    </g>
  </g>
</svg>
