<svg xmlns="http://www.w3.org/2000/svg" width="72.238" height="58.667" viewBox="0 0 72.238 58.667">
  <g id="office-worker" transform="translate(0 -48)">
    <path id="Path_354" data-name="Path 354" d="M210.12,96.938l9.189,1.838v1.393h2.12V97.038L208,94.352v5.817h2.12Z" transform="translate(-178.596 -39.799)" fill="#83c71b"/>
    <path id="Path_355" data-name="Path 355" d="M58.532,100.023,55.161,75.3,42.834,73.056V69.717a8.882,8.882,0,0,0,2.251-5.5l2.273-2.273V53.584A5.59,5.59,0,0,0,41.774,48H30.464a5.59,5.59,0,0,0-5.584,5.584v8.357l2.3,2.289A9.468,9.468,0,0,0,29.4,69.594v3.462L17.078,75.3l-3.372,24.726H0v6.644H72.238v-6.644Zm-37.045,0H16.645l4.843-2.767Zm10.037-28.6a8.642,8.642,0,0,0,4.319,1.313q.14,0,.279,0a8.9,8.9,0,0,0,4.591-1.262V73.34L36.119,76.1,31.525,73.34V71.422ZM36.119,79.1l2.12,2.827H34Zm4.714,2.827,5.124-6.149,3.566.648-2.75,5.5Zm-15.368,0-2.75-5.5,3.566-.648,5.124,6.149Zm-1.857,2.12H48.63v15.974H23.608ZM50.75,97.255l4.843,2.767H50.75Zm5.348.614L50.75,94.813V81.928H49.144L51.7,76.822l1.571.286ZM43.56,75.343l-4,4.805-1.883-2.511,4.3-2.583ZM29.252,63.305,27,61.06V53.584a3.467,3.467,0,0,1,3.463-3.463H41.774a3.467,3.467,0,0,1,3.463,3.463v7.477l-2.262,2.262v.439a6.857,6.857,0,0,1-7.068,6.853,7.042,7.042,0,0,1-6.639-6.895Zm1.009,11.75,4.3,2.583-1.883,2.511-4-4.805Zm-11.29,2.053,1.571-.286,2.553,5.105H21.488V94.813L16.14,97.869Zm51.147,27.438h-68v-2.4h68Z" fill="#83c71b"/>
    <rect id="Rectangle_204" data-name="Rectangle 204" width="9.047" height="2.12" transform="translate(31.595 90.975)" fill="#83c71b"/>
  </g>
</svg>
