<svg xmlns="http://www.w3.org/2000/svg" width="16" height="16" viewBox="0 0 16 16">
  <g id="Group_186" data-name="Group 186" transform="translate(-1078 -370.858)">
    <path id="Path_56" data-name="Path 56" d="M1086,370.858a8,8,0,1,0,5.683,13.627.657.657,0,0,0-.032-.923l-1.263-1.244a1.153,1.153,0,0,0,.083-1.257,3.417,3.417,0,0,0-1.352-1.4,1.3,1.3,0,0,0-.657-.2,1.089,1.089,0,0,0-.25.03,2.238,2.238,0,0,0-.8.39.5.5,0,0,1-.305.094.717.717,0,0,1-.408-.129,9.748,9.748,0,0,1-2.017-2.017.649.649,0,0,1-.036-.714,2.21,2.21,0,0,0,.39-.8,1.194,1.194,0,0,0-.166-.906,3.416,3.416,0,0,0-1.4-1.353,1.251,1.251,0,0,0-.58-.15,1.2,1.2,0,0,0-.878.408,9.317,9.317,0,0,0-.667.818,1.312,1.312,0,0,0-.182.911v.006a3.784,3.784,0,0,0,.424,1.342,9.956,9.956,0,0,0,1.9,2.613c.173.177.861.865,1.038,1.038a9.964,9.964,0,0,0,2.612,1.9,3.8,3.8,0,0,0,1.342.424h.006c.076,0,.158.008.238.008a1.1,1.1,0,0,0,.652-.176l.831.819a6.658,6.658,0,1,1,2.455-5.16.669.669,0,0,0,1.339,0,8.009,8.009,0,0,0-8-8Zm0,0" transform="translate(0 0)" fill="#1976d2"/>
  </g>
</svg>
