<svg xmlns="http://www.w3.org/2000/svg" width="11.291" height="16.268" viewBox="0 0 11.291 16.268">
  <g id="Group_188" data-name="Group 188" transform="translate(-1257 -541.858)">
    <path id="Path_61" data-name="Path 61" d="M1262.646,541.858A5.652,5.652,0,0,0,1257,547.5c0,3,5.122,10,5.339,10.294l.2.276a.126.126,0,0,0,.2,0l.2-.276c.218-.3,5.341-7.3,5.341-10.294a5.652,5.652,0,0,0-5.646-5.646Zm0,3.624a2.022,2.022,0,1,1-2.023,2.022,2.023,2.023,0,0,1,2.023-2.022Zm0,0" fill="#1976d2"/>
  </g>
</svg>
