<svg xmlns="http://www.w3.org/2000/svg" width="66.088" height="41.962" viewBox="0 0 66.088 41.962">
  <path id="Path_87" data-name="Path 87" d="M60.657,114.064a7.545,7.545,0,1,0-8.657,0,13.073,13.073,0,0,0-4.459,2.615,16.917,16.917,0,0,0-6.12-3.334,9.559,9.559,0,1,0-9.886,0,17.057,17.057,0,0,0-6.054,3.3,13.179,13.179,0,0,0-4.407-2.563,7.545,7.545,0,1,0-8.657,0A13.244,13.244,0,0,0,3.5,126.591v.863a.056.056,0,0,0,.052.052H19.545a17.587,17.587,0,0,0-.144,2.21v.889a6.954,6.954,0,0,0,6.957,6.957H46.626a6.954,6.954,0,0,0,6.957-6.957v-.889a17.587,17.587,0,0,0-.144-2.21h16.1a.056.056,0,0,0,.052-.052v-.863A13.3,13.3,0,0,0,60.657,114.064Zm-9.781-6.185a5.453,5.453,0,1,1,5.557,5.453h-.209A5.445,5.445,0,0,1,50.876,107.879Zm-21.89-2.72a7.467,7.467,0,1,1,7.9,7.454h-.863A7.477,7.477,0,0,1,28.986,105.159Zm-17.732,2.72a5.453,5.453,0,1,1,5.557,5.453H16.6A5.454,5.454,0,0,1,11.254,107.879ZM19.911,125.4H5.618a11.173,11.173,0,0,1,11.01-9.977h.157a11.056,11.056,0,0,1,7.127,2.655A17.169,17.169,0,0,0,19.911,125.4Zm31.553,5.2A4.872,4.872,0,0,1,46.6,135.47H26.331a4.872,4.872,0,0,1-4.864-4.864v-.889a15.021,15.021,0,0,1,14.554-15c.144.013.3.013.445.013s.3,0,.445-.013a15.021,15.021,0,0,1,14.554,15Zm1.556-5.2a17.124,17.124,0,0,0-3.962-7.27,11.11,11.11,0,0,1,7.192-2.707h.157a11.173,11.173,0,0,1,11.01,9.977Z" transform="translate(-3.5 -95.6)" fill="#fff"/>
</svg>
