<svg xmlns="http://www.w3.org/2000/svg" xmlns:xlink="http://www.w3.org/1999/xlink" width="49.596" height="49.618" viewBox="0 0 49.596 49.618">
  <defs>
    <clipPath id="clip-path">
      <rect id="Rectangle_13" data-name="Rectangle 13" width="49.596" height="49.618" fill="#dedede"/>
    </clipPath>
  </defs>
  <g id="Group_58" data-name="Group 58" transform="translate(-1142 -433.858)">
    <g id="Group_57" data-name="Group 57" transform="translate(1142 433.858)">
      <g id="Group_56" data-name="Group 56" transform="translate(0 0)" clip-path="url(#clip-path)">
        <path id="Path_63" data-name="Path 63" d="M1189.163,446.128l-9.9-9.9a8.124,8.124,0,0,0-11.474,0l-23.42,23.42a8.123,8.123,0,0,0,0,11.474l9.9,9.9a8.122,8.122,0,0,0,11.474,0L1183,463.764a1.115,1.115,0,0,0-1.577-1.577L1167.011,476.6l-16.021-16.021a1.115,1.115,0,1,0-1.577,1.577l16.022,16.022-1.267,1.267a5.882,5.882,0,0,1-8.32,0l-9.9-9.9a5.882,5.882,0,0,1,0-8.32l21.244-21.244,19.005,19.005c.028.027.056.052.085.076a1.114,1.114,0,0,0,1.407,0,1.14,1.14,0,0,0,.085-.076l1.387-1.387a8.123,8.123,0,0,0,0-11.474Zm-1.577,9.9-.6.6-18.217-18.217.6-.6a5.882,5.882,0,0,1,8.32,0l9.9,9.9a5.884,5.884,0,0,1,0,8.321Zm0,0" transform="translate(-1142.001 -433.859)" fill="#dedede"/>
      </g>
    </g>
    <path id="Path_64" data-name="Path 64" d="M1341.588,489.944a1.115,1.115,0,1,0,.788.326,1.122,1.122,0,0,0-.788-.326Zm0,0" transform="translate(-161.59 -45.663)" fill="#dedede"/>
    <path id="Path_65" data-name="Path 65" d="M1193.284,629.354a1.115,1.115,0,0,0,.788-1.9l-3.29-3.29a1.115,1.115,0,0,0-1.577,1.577l3.29,3.29a1.115,1.115,0,0,0,.788.327Zm0,0" transform="translate(-38.167 -154.672)" fill="#dedede"/>
  </g>
</svg>
