<svg xmlns="http://www.w3.org/2000/svg" xmlns:xlink="http://www.w3.org/1999/xlink" width="41.017" height="54.95" viewBox="0 0 41.017 54.95">
  <defs>
    <clipPath id="clip-path">
      <rect id="Rectangle_14" data-name="Rectangle 14" width="41.017" height="54.95" fill="#1976d2"/>
    </clipPath>
  </defs>
  <g id="Group_93" data-name="Group 93" transform="translate(-1149 -397.858)">
    <g id="Group_60" data-name="Group 60" transform="translate(1149 397.858)">
      <g id="Group_59" data-name="Group 59" clip-path="url(#clip-path)">
        <path id="Path_66" data-name="Path 66" d="M1300.152,526.3l-2.193-2.193a.713.713,0,0,0-1.009,0l-.287.287-2.025-2.025v-3.959a.714.714,0,0,0-.5-.681l-12.517-3.924a.713.713,0,0,0-.894.894l3.924,12.516a.713.713,0,0,0,.68.5h3.96l2.025,2.024-.287.287a.713.713,0,0,0,0,1.009l2.193,2.193a.712.712,0,0,0,1.009,0l5.922-5.921a.713.713,0,0,0,0-1.009Zm-10.565-.011h-3.731l-2.9-9.244,4.131,4.132a2.357,2.357,0,1,0,1.01-1.009l-4.132-4.132,9.244,2.9v3.731a.713.713,0,0,0,.208.5l2.234,2.233-3.328,3.328-2.234-2.234a.714.714,0,0,0-.5-.208Zm-.406-4.958a.928.928,0,1,1-.657.271.927.927,0,0,1,.657-.271Zm4.545,10.386-1.184-1.184,4.912-4.913,1.184,1.184Zm0,0" transform="translate(-1259.341 -494.98)" fill="#1976d2"/>
        <path id="Path_67" data-name="Path 67" d="M1176.833,446.751a2.984,2.984,0,0,0-2.855,2.126,23.8,23.8,0,0,1-21.086-20.817,2.979,2.979,0,0,0,0-5.672,23.8,23.8,0,0,1,21.085-20.817,2.979,2.979,0,1,0-.037-1.564h-14.2v-.58a.713.713,0,0,0-.713-.713h-2.587a.713.713,0,0,0-.713.713v2.587a.713.713,0,0,0,.713.713h2.587a.713.713,0,0,0,.713-.713v-.579h8.42a25.22,25.22,0,0,0-15.525,15.7v-5.414h.58a.713.713,0,0,0,.713-.713v-2.587a.713.713,0,0,0-.713-.713h-2.587a.714.714,0,0,0-.714.713v2.587a.714.714,0,0,0,.714.713h.58v10.629a2.979,2.979,0,0,0,0,5.752v10.629h-.58a.714.714,0,0,0-.714.713v2.587a.714.714,0,0,0,.714.713h2.587a.713.713,0,0,0,.713-.713v-2.587a.713.713,0,0,0-.713-.713h-.58v-5.414a25.227,25.227,0,0,0,15.535,15.7h-8.43v-.581a.713.713,0,0,0-.713-.713h-2.587a.713.713,0,0,0-.713.713v2.587a.714.714,0,0,0,.713.714h2.587a.714.714,0,0,0,.713-.714v-.579h14.2a2.979,2.979,0,1,0,2.893-3.693Zm0-47.583a1.552,1.552,0,1,1-1.553,1.552,1.554,1.554,0,0,1,1.553-1.552Zm-26.406,26.056a1.552,1.552,0,1,1,1.552,1.553,1.554,1.554,0,0,1-1.552-1.553Zm26.406,26.059a1.553,1.553,0,1,1,1.553-1.552,1.555,1.555,0,0,1-1.553,1.552Zm0,0" transform="translate(-1149 -397.76)" fill="#1976d2"/>
      </g>
    </g>
  </g>
</svg>
