<svg xmlns="http://www.w3.org/2000/svg" width="54.499" height="43.023" viewBox="0 0 54.499 43.023">
  <g id="Group_63" data-name="Group 63" transform="translate(-1251 -548.858)">
    <path id="Path_69" data-name="Path 69" d="M1304.579,548.858H1251.92a.921.921,0,0,0-.92.92v31.471a.918.918,0,0,0,.92.92h15.58v4.074a.918.918,0,0,0,.92.915h19.659a.917.917,0,0,0,.92-.915v-4.074h15.58a.918.918,0,0,0,.92-.92V549.778a.921.921,0,0,0-.92-.92Zm-.919,1.84v23.175h-50.82V550.7Zm-16.5,34.624H1269.34v-3.154h17.819Zm.92-4.989H1252.84v-4.62h50.82v4.62Zm0,0" transform="translate(0 0)" fill="#dedede"/>
    <path id="Path_70" data-name="Path 70" d="M1292.683,586.557a.92.92,0,0,0,0-1.84h-31.6a.92.92,0,0,0,0,1.84Zm0,0" transform="translate(1.362 5.324)" fill="#dedede"/>
    <path id="Path_71" data-name="Path 71" d="M1257.322,570.212l8-7.694,7.887,3.79a.916.916,0,0,0,.892-.054l5.824-3.733,10.915,7.775a.917.917,0,0,0,1.359-.346l7.613-15.563a.919.919,0,1,0-1.65-.807l-7.138,14.594-10.543-7.51a.921.921,0,0,0-1.027-.022l-5.914,3.787-8-3.845a.923.923,0,0,0-1.036.165l-8.461,8.138a.919.919,0,0,0,1.274,1.324Zm0,0" transform="translate(0.708 0.625)" fill="#dedede"/>
  </g>
</svg>
