<svg id="Group_256" data-name="Group 256" xmlns="http://www.w3.org/2000/svg" width="177.151" height="43.042" viewBox="0 0 177.151 43.042">
  <path id="Path_115" data-name="Path 115" d="M165.522,15.018h-.177v.594h.177c.316,0,.4-.091.4-.31l-.4-.285m.689,1.629h-.17l-.07-.036-.133-.238-.328-.464-.1-.056h-.064v.693l-.088.093h-.113l-.095-.093V14.873l.095-.088h.474c.417,0,.619.241.619.515a.479.479,0,0,1-.486.515,2.44,2.44,0,0,1,.525.728ZM165.6,14.3a1.43,1.43,0,1,0,1.378,1.425A1.381,1.381,0,0,0,165.6,14.3m0,3.1a1.668,1.668,0,1,1,1.668-1.672,1.653,1.653,0,0,1-1.668,1.672" transform="translate(9.885 -2.138)" fill="#1a1818"/>
  <path id="Path_116" data-name="Path 116" d="M28.8,30.084a10.47,10.47,0,0,0,3.651-7.737v-.8l5.381,0a14.779,14.779,0,0,0-2.9-6.936l-5.324,3.072c3.362,5.811-.285,10.951-4.747,13.53a15.865,15.865,0,0,1-6.375,2.01,14.329,14.329,0,0,0,2.084.15A12.431,12.431,0,0,0,28.8,30.084" transform="translate(-1.566 -2.095)" fill="#da191a"/>
  <path id="Path_117" data-name="Path 117" d="M33.241,28.28l.4-.691,3.3,1.9A15.07,15.07,0,0,0,38.4,23.026c0-.413-.017-.828-.057-1.246H33.683C33.685,28.24,27.456,33.6,21,33.6a14.073,14.073,0,0,1-7.939-2.372A12.716,12.716,0,0,0,15.5,33.046,13,13,0,0,0,33.241,28.28" transform="translate(-1.993 -1.53)" fill="#da191a"/>
  <path id="Path_118" data-name="Path 118" d="M34.233,28.343a13.785,13.785,0,0,1-24.928-2.25,14.749,14.749,0,0,0,1.618,4.07A14.911,14.911,0,0,0,31.269,35.6a14.752,14.752,0,0,0,5.594-5.741l-2.63-1.517" transform="translate(-2.289 -1.191)" fill="#da191a"/>
  <path id="Path_119" data-name="Path 119" d="M10.737,32.385a15.693,15.693,0,1,1,21.446,5.729,15.713,15.713,0,0,1-21.446-5.729M42.956,13.752A21.526,21.526,0,1,0,35.1,43.161a21.549,21.549,0,0,0,7.852-29.409" transform="translate(-2.801 -3.008)" fill="#da191a"/>
  <path id="Path_120" data-name="Path 120" d="M94.822,23.61c.526-4.193,2.928-4.859,4.369-4.859,2.893,0,3.987,2.5,4.071,4.859h-8.44m12.028,1.508c0-6.651-3.716-8.621-7.743-8.621-4.677,0-7.914,3.236-7.914,8.554,0,5.7,3.276,8.765,9.313,8.765a15.19,15.19,0,0,0,4.083-.468c.53-.151.763-.484.612-.885l-.348-.928a.93.93,0,0,0-1.128-.54,15.048,15.048,0,0,1-3.258.354c-3.937,0-5.471-1.934-5.644-5.486h11.152a.834.834,0,0,0,.876-.744" transform="translate(4.158 -1.946)" fill="#1a1818"/>
  <path id="Path_121" data-name="Path 121" d="M153.033,23.61c.524-4.193,2.932-4.859,4.373-4.859,2.889,0,3.983,2.5,4.071,4.859h-8.444m12.028,1.508c0-6.651-3.716-8.621-7.743-8.621-4.684,0-7.914,3.236-7.914,8.554,0,5.7,3.28,8.765,9.317,8.765a15.25,15.25,0,0,0,4.083-.468c.524-.151.758-.484.607-.885l-.348-.928a.928.928,0,0,0-1.13-.54,14.982,14.982,0,0,1-3.256.354c-3.937,0-5.473-1.934-5.644-5.486h11.155a.833.833,0,0,0,.873-.744" transform="translate(8.741 -1.946)" fill="#1a1818"/>
  <path id="Path_122" data-name="Path 122" d="M64.5,33.814a17.294,17.294,0,0,1-5.821-.988c-.528-.211-.654-.527-.481-.953l.4-1.054a.818.818,0,0,1,1.134-.456,13.211,13.211,0,0,0,4.854.949c2.188,0,3.2-.847,3.2-2.288,0-3.2-8.966-3.238-8.966-7.953,0-2.711,2.576-4.576,6.691-4.576a12.151,12.151,0,0,1,4.5.74.651.651,0,0,1,.392.948l-.392.88c-.174.427-.609.5-1.094.354a12.131,12.131,0,0,0-3.541-.634c-1.97,0-3.1.809-3.1,2.08,0,2.954,9.053,3.055,9.053,8.2,0,2.781-2.622,4.753-6.82,4.753" transform="translate(1.555 -1.946)" fill="#1a1818"/>
  <path id="Path_123" data-name="Path 123" d="M120.565,33.394a15.613,15.613,0,0,1-3.975.422c-5.12,0-8.531-3.132-8.531-8.8a8.22,8.22,0,0,1,8.482-8.52,11.933,11.933,0,0,1,3.716.6c.571.206.831.489.66.876L120.478,19c-.133.355-.436.634-1.093.424a10.064,10.064,0,0,0-2.971-.5c-2.712,0-4.642,2.288-4.642,6.093,0,4.151,1.707,6.193,5.031,6.193a15.05,15.05,0,0,0,3.061-.316.847.847,0,0,1,1.1.531l.31,1.087c.082.354-.133.743-.707.882" transform="translate(5.486 -1.946)" fill="#1a1818"/>
  <path id="Path_124" data-name="Path 124" d="M130.177,18.853c-3.02,0-4.683,2.077-4.683,6.3,0,4.326,1.662,6.335,4.683,6.335s4.677-2.01,4.677-6.335c0-4.224-1.662-6.3-4.677-6.3m.088,14.961c-5.075,0-8.4-3.238-8.4-8.66,0-5.383,3.325-8.659,8.4-8.659s8.306,3.276,8.306,8.659c0,5.422-3.236,8.66-8.306,8.66" transform="translate(6.573 -1.946)" fill="#1a1818"/>
  <path id="Path_125" data-name="Path 125" d="M148.9,18.2V17.106c0-.333-.126-.634-.29-.636H146.6c-3.874,0-6.086,1.711-6.086,4.685V33.219c0,.232.436.42.916.42h1.587c.462,0,.885-.177.917-.4V22.192c0-2.686,1.314-3.356,3.375-3.349h1.3c.164-.006.29-.31.29-.641" transform="translate(8.041 -1.948)" fill="#1a1818"/>
  <path id="Path_126" data-name="Path 126" d="M89.786,31.644h-1.3c-2.029-.039-3.381-.667-3.381-3.351V19.25h3.058c.146,0,.278-.284.278-.6V17.607c0-.312-.133-.6-.284-.6H85.1V12.722c0-.563-.614-.532-1.136-.39l-1.618.455a.809.809,0,0,0-.658.776v3.7l0,.005v12.06c0,2.979,2.206,4.69,6.087,4.69h2.01c.161,0,.291-.3.291-.639V32.283c0-.337-.131-.639-.291-.64" transform="translate(3.41 -2.281)" fill="#1a1818"/>
  <path id="Path_127" data-name="Path 127" d="M76.268,16.5l-1.618.46a.8.8,0,0,0-.658.771v15.5c0,.23.436.417.917.417h1.58c.478,0,.909-.188.909-.417V16.884c0-.565-.606-.532-1.131-.388" transform="translate(2.804 -1.953)" fill="#1a1818"/>
</svg>
