<svg xmlns="http://www.w3.org/2000/svg" xmlns:xlink="http://www.w3.org/1999/xlink" width="48" height="35" viewBox="0 0 48 35">
  <defs>
    <clipPath id="clip-path">
      <rect id="Rectangle_16" data-name="Rectangle 16" width="48" height="35" transform="translate(-0.241)" fill="#dedede"/>
    </clipPath>
  </defs>
  <g id="Group_68" data-name="Group 68" transform="translate(-1263.049 -558.397)">
    <g id="Group_67" data-name="Group 67" transform="translate(1263.29 558.397)">
      <g id="Group_66" data-name="Group 66" transform="translate(0 0)" clip-path="url(#clip-path)">
        <path id="Path_81" data-name="Path 81" d="M1310.736,590.113c-.736,1.457-2.411,2.255-4.729,2.255h-9.771a.963.963,0,0,1,0-1.926h9.771c1.535,0,2.632-.437,3.015-1.2s.078-1.9-.838-3.133l-8.058-10.93a.993.993,0,0,1-.178-.571V559.82a.96.96,0,0,1,.962-.962h2.961a.963.963,0,0,1,0,1.926h-2V574.3l7.867,10.672c1.379,1.872,1.732,3.7,1,5.143Zm-17.162-5.143c1.371,1.872,1.73,3.7.994,5.143s-2.411,2.255-4.736,2.255H1268.1c-2.317,0-3.993-.8-4.729-2.255s-.377-3.271.994-5.143l7.875-10.672V560.784H1269.6a.963.963,0,1,1,0-1.926h3.61a.972.972,0,0,1,.962.962v1.966h3.4a.959.959,0,1,1,0,1.918h-3.4v2.748h3.4a.963.963,0,0,1,0,1.926h-3.4v2.748h3.4a.959.959,0,1,1,0,1.918h-3.4v1.574a1.016,1.016,0,0,1-.188.571l-8.064,10.93c-.908,1.229-1.213,2.373-.83,3.133s1.479,1.189,3.015,1.189h11.627a2.7,2.7,0,0,1-.2-.329c-.728-1.447-.377-3.271,1-5.135l5.324-7.228-1.894-2.568a.987.987,0,0,1-.189-.571V559.82a.967.967,0,0,1,.964-.962h4.626a.972.972,0,0,1,.964.962v1.966h3.061a.959.959,0,1,1,0,1.918h-3.061v2.748h3.061a.963.963,0,1,1,0,1.926h-3.061v2.748h3.061a.959.959,0,1,1,0,1.918h-3.061v1.574a1.011,1.011,0,0,1-.189.571l-1.894,2.568Zm-6.522-8.84,1.355-1.832V560.784h-2.7V574.3Zm4.979,9.99-4.971-6.749-4.973,6.749c-.908,1.229-1.213,2.365-.83,3.133s1.489,1.189,3.015,1.189h5.568c1.533,0,2.638-.429,3.021-1.189s.08-1.91-.83-3.133ZM1299.6,586a1.95,1.95,0,1,0-1.95-1.95,1.949,1.949,0,0,0,1.95,1.95Zm4.54.515a.78.78,0,1,0,.784.784.783.783,0,0,0-.784-.784Zm-10.381-8.306a1.816,1.816,0,1,0,1.816-1.824,1.817,1.817,0,0,0-1.816,1.824Zm-21.547,6.749a2.337,2.337,0,1,0,2.333,2.341,2.337,2.337,0,0,0-2.333-2.341Zm4.933-3.5a1.688,1.688,0,1,0-1.692,1.684,1.689,1.689,0,0,0,1.692-1.684Zm2.333-1.692a1.3,1.3,0,1,0-1.3-1.3,1.3,1.3,0,0,0,1.3,1.3Zm8.048,5.191a1.3,1.3,0,1,0,1.3,1.3,1.3,1.3,0,0,0-1.3-1.3Zm0,0" transform="translate(-1263.345 -558.308)" fill="#dedede"/>
      </g>
    </g>
  </g>
</svg>
