<svg xmlns="http://www.w3.org/2000/svg" xmlns:xlink="http://www.w3.org/1999/xlink" width="54.822" height="54.847" viewBox="0 0 54.822 54.847">
  <defs>
    <clipPath id="clip-path">
      <rect id="Rectangle_13" data-name="Rectangle 13" width="54.822" height="54.847" fill="#1976d2"/>
    </clipPath>
  </defs>
  <g id="Group_92" data-name="Group 92" transform="translate(-1142 -433.858)">
    <g id="Group_57" data-name="Group 57" transform="translate(1142 433.858)">
      <g id="Group_56" data-name="Group 56" transform="translate(0 0)" clip-path="url(#clip-path)">
        <path id="Path_63" data-name="Path 63" d="M1194.134,447.421l-10.939-10.94a8.98,8.98,0,0,0-12.683,0l-25.888,25.888a8.979,8.979,0,0,0,0,12.683l10.94,10.939a8.977,8.977,0,0,0,12.683,0l19.077-19.076a1.233,1.233,0,0,0-1.744-1.744L1169.647,481.1l-17.709-17.709a1.233,1.233,0,1,0-1.744,1.743l17.71,17.71-1.4,1.4a6.5,6.5,0,0,1-9.2,0l-10.94-10.94a6.5,6.5,0,0,1,0-9.2l23.483-23.483,21.008,21.008c.031.03.062.058.094.084a1.231,1.231,0,0,0,1.556,0,1.251,1.251,0,0,0,.094-.084l1.534-1.533a8.979,8.979,0,0,0,0-12.683Zm-1.743,10.94-.662.661-20.137-20.137.662-.661a6.5,6.5,0,0,1,9.2,0l10.94,10.939a6.5,6.5,0,0,1,0,9.2Zm0,0" transform="translate(-1142.001 -433.859)" fill="#1976d2"/>
      </g>
    </g>
    <path id="Path_64" data-name="Path 64" d="M1341.706,489.944a1.233,1.233,0,1,0,.871.36,1.241,1.241,0,0,0-.871-.36Zm0,0" transform="translate(-157.703 -44.565)" fill="#1976d2"/>
    <path id="Path_65" data-name="Path 65" d="M1193.748,629.936a1.233,1.233,0,0,0,.871-2.1l-3.636-3.637a1.232,1.232,0,0,0-1.743,1.743l3.636,3.636a1.232,1.232,0,0,0,.871.361Zm0,0" transform="translate(-37.249 -150.951)" fill="#1976d2"/>
  </g>
</svg>
