<svg xmlns="http://www.w3.org/2000/svg" xmlns:xlink="http://www.w3.org/1999/xlink" width="37.467" height="50.194" viewBox="0 0 37.467 50.194">
  <defs>
    <clipPath id="clip-path">
      <rect id="Rectangle_14" data-name="Rectangle 14" width="37.467" height="50.194" fill="#dedede"/>
    </clipPath>
  </defs>
  <g id="Group_61" data-name="Group 61" transform="translate(-1149 -397.858)">
    <g id="Group_60" data-name="Group 60" transform="translate(1149 397.858)">
      <g id="Group_59" data-name="Group 59" clip-path="url(#clip-path)">
        <path id="Path_66" data-name="Path 66" d="M1298.469,525.219l-2-2a.652.652,0,0,0-.922,0l-.263.263-1.85-1.85v-3.617a.652.652,0,0,0-.457-.622l-11.433-3.584a.651.651,0,0,0-.816.817l3.584,11.433a.651.651,0,0,0,.621.457h3.617l1.85,1.849-.263.263a.651.651,0,0,0,0,.922l2,2a.651.651,0,0,0,.921,0l5.409-5.409a.652.652,0,0,0,0-.922Zm-9.651-.01h-3.408l-2.648-8.444,3.774,3.774a2.153,2.153,0,1,0,.922-.922l-3.774-3.774,8.444,2.648V521.9a.651.651,0,0,0,.19.461l2.041,2.04-3.04,3.04-2.041-2.041a.653.653,0,0,0-.461-.19Zm-.37-4.529a.848.848,0,1,1-.6.248.847.847,0,0,1,.6-.248Zm4.151,9.487-1.081-1.081L1296,524.6l1.081,1.081Zm0,0" transform="translate(-1261.189 -496.607)" fill="#dedede"/>
        <path id="Path_67" data-name="Path 67" d="M1174.424,442.509a2.726,2.726,0,0,0-2.608,1.942,21.736,21.736,0,0,1-19.261-19.015,2.721,2.721,0,0,0,0-5.181,21.736,21.736,0,0,1,19.26-19.015,2.722,2.722,0,1,0-.034-1.428h-12.975v-.53a.651.651,0,0,0-.651-.652h-2.363a.652.652,0,0,0-.651.652v2.363a.652.652,0,0,0,.651.651h2.363a.651.651,0,0,0,.651-.651v-.529h7.691a23.037,23.037,0,0,0-14.182,14.339v-4.945h.53a.651.651,0,0,0,.651-.651v-2.363a.651.651,0,0,0-.651-.652h-2.363a.652.652,0,0,0-.652.652v2.363a.652.652,0,0,0,.652.651h.53v9.709a2.721,2.721,0,0,0,0,5.254v9.709h-.53a.652.652,0,0,0-.652.651V438.2a.652.652,0,0,0,.652.652h2.363a.651.651,0,0,0,.651-.652v-2.363a.651.651,0,0,0-.651-.651h-.53v-4.945a23.043,23.043,0,0,0,14.191,14.343h-7.7v-.531a.651.651,0,0,0-.651-.651h-2.363a.652.652,0,0,0-.651.651v2.363a.652.652,0,0,0,.651.652h2.363a.652.652,0,0,0,.651-.652v-.529h12.975a2.721,2.721,0,1,0,2.642-3.373Zm0-43.465a1.418,1.418,0,1,1-1.419,1.418,1.42,1.42,0,0,1,1.419-1.418Zm-24.12,23.8a1.418,1.418,0,1,1,1.418,1.418,1.42,1.42,0,0,1-1.418-1.418Zm24.12,23.8a1.418,1.418,0,1,1,1.418-1.418,1.42,1.42,0,0,1-1.418,1.418Zm0,0" transform="translate(-1149 -397.758)" fill="#dedede"/>
      </g>
    </g>
  </g>
</svg>
